<svg width="614" height="508" viewBox="0 0 614 508" fill="none" xmlns="http://www.w3.org/2000/svg">
<path d="M396.581 18H311.419C309.983 18.0017 308.605 18.6005 307.589 19.6653C306.573 20.73 306.002 22.1735 306 23.6792V83.717C306.002 85.2227 306.573 86.6663 307.589 87.731C308.605 88.7957 309.983 89.3946 311.419 89.3962H341.334L340.301 95.8868H333.871C333.46 95.8868 333.066 96.0578 332.776 96.3621C332.486 96.6664 332.323 97.0791 332.323 97.5094V100.755H326.129C325.718 100.755 325.325 100.926 325.034 101.23C324.744 101.534 324.581 101.947 324.581 102.377C324.581 102.808 324.744 103.22 325.034 103.525C325.325 103.829 325.718 104 326.129 104H381.871C382.282 104 382.675 103.829 382.966 103.525C383.256 103.22 383.419 102.808 383.419 102.377C383.419 101.947 383.256 101.534 382.966 101.23C382.675 100.926 382.282 100.755 381.871 100.755H375.677V97.5094C375.677 97.0791 375.514 96.6664 375.224 96.3621C374.934 96.0578 374.54 95.8868 374.129 95.8868H367.699L366.666 89.3962H396.581C398.017 89.3946 399.395 88.7957 400.411 87.731C401.427 86.6663 401.998 85.2227 402 83.717V23.6792C401.998 22.1735 401.427 20.73 400.411 19.6653C399.395 18.6005 398.017 18.0017 396.581 18ZM372.581 99.1321V100.755H335.419V99.1321H372.581ZM343.44 95.8868L344.474 89.3962H363.526L364.56 95.8868H343.44ZM398.903 83.717C398.903 84.3623 398.658 84.9811 398.222 85.4375C397.787 85.8938 397.196 86.1504 396.581 86.1509H311.419C310.804 86.1504 310.213 85.8938 309.778 85.4375C309.342 84.9811 309.097 84.3623 309.097 83.717V79.6604H398.903V83.717ZM346.85 37.4717L349.173 42.3396H337.15L339.472 37.4717H346.85ZM341.021 34.2264L343.161 29.7418L345.302 34.2264H341.021ZM349.355 45.5849V76.4151H347.806V45.5849H349.355ZM341.599 45.5849H344.71V76.4151H341.613V45.7877C341.612 45.7199 341.608 45.6522 341.599 45.5849V45.5849ZM338.53 45.5849C338.521 45.6522 338.517 45.7199 338.516 45.7877V76.4151H336.968V45.5849H338.53ZM364.839 40.717H371.032V43.9623H367.935C367.525 43.9623 367.131 44.1332 366.841 44.4375C366.55 44.7418 366.387 45.1546 366.387 45.5849C366.387 46.0153 366.55 46.428 366.841 46.7323C367.131 47.0366 367.525 47.2075 367.935 47.2075H371.032V50.4528H364.839C364.428 50.4528 364.034 50.6238 363.744 50.9281C363.453 51.2324 363.29 51.6451 363.29 52.0755C363.29 52.5058 363.453 52.9186 363.744 53.2229C364.034 53.5272 364.428 53.6981 364.839 53.6981H371.032V56.9434H367.935C367.525 56.9434 367.131 57.1144 366.841 57.4187C366.55 57.723 366.387 58.1357 366.387 58.566C366.387 58.9964 366.55 59.4091 366.841 59.7134C367.131 60.0177 367.525 60.1887 367.935 60.1887H371.032V63.434H364.839C364.428 63.434 364.034 63.6049 363.744 63.9092C363.453 64.2135 363.29 64.6263 363.29 65.0566C363.29 65.487 363.453 65.8997 363.744 66.204C364.034 66.5083 364.428 66.6792 364.839 66.6792H371.032V69.9245H367.935C367.525 69.9245 367.131 70.0955 366.841 70.3998C366.55 70.7041 366.387 71.1168 366.387 71.5472C366.387 71.9775 366.55 72.3902 366.841 72.6946C367.131 72.9989 367.525 73.1698 367.935 73.1698H371.032V76.4151H358.645V34.2264H371.032V37.4717H364.839C364.428 37.4717 364.034 37.6427 363.744 37.947C363.453 38.2513 363.29 38.664 363.29 39.0943C363.29 39.5247 363.453 39.9374 363.744 40.2417C364.034 40.546 364.428 40.717 364.839 40.717ZM398.903 76.4151H374.129V32.6038C374.129 32.1734 373.966 31.7607 373.676 31.4564C373.385 31.1521 372.991 30.9811 372.581 30.9811H357.097C356.686 30.9811 356.292 31.1521 356.002 31.4564C355.712 31.7607 355.548 32.1734 355.548 32.6038V76.4151H352.452V42.3396C352.451 42.0877 352.396 41.8392 352.289 41.6135L344.547 25.3871C344.418 25.1176 344.22 24.891 343.976 24.7327C343.731 24.5744 343.449 24.4905 343.161 24.4905C342.874 24.4905 342.592 24.5744 342.347 24.7327C342.102 24.891 341.904 25.1176 341.775 25.3871L334.034 41.6135C333.927 41.8392 333.871 42.0877 333.871 42.3396V76.4151H309.097V23.6792C309.097 23.0339 309.342 22.4151 309.778 21.9588C310.213 21.5024 310.804 21.2458 311.419 21.2453H396.581C397.196 21.2458 397.787 21.5024 398.222 21.9588C398.658 22.4151 398.903 23.0339 398.903 23.6792V76.4151Z" fill="url(#paint0_linear)"/>
<path d="M323.032 81.2832H313.742C313.331 81.2832 312.937 81.4542 312.647 81.7585C312.357 82.0628 312.194 82.4755 312.194 82.9058C312.194 83.3362 312.357 83.7489 312.647 84.0532C312.937 84.3575 313.331 84.5285 313.742 84.5285H323.032C323.443 84.5285 323.837 84.3575 324.127 84.0532C324.418 83.7489 324.581 83.3362 324.581 82.9058C324.581 82.4755 324.418 82.0628 324.127 81.7585C323.837 81.4542 323.443 81.2832 323.032 81.2832Z" fill="url(#paint1_linear)"/>
<path d="M329.226 81.2832H327.677C327.267 81.2832 326.873 81.4542 326.583 81.7585C326.292 82.0628 326.129 82.4755 326.129 82.9058C326.129 83.3362 326.292 83.7489 326.583 84.0532C326.873 84.3575 327.267 84.5285 327.677 84.5285H329.226C329.636 84.5285 330.03 84.3575 330.321 84.0532C330.611 83.7489 330.774 83.3362 330.774 82.9058C330.774 82.4755 330.611 82.0628 330.321 81.7585C330.03 81.4542 329.636 81.2832 329.226 81.2832Z" fill="url(#paint2_linear)"/>
<path d="M579.581 200H494.419C492.983 200.002 491.605 200.67 490.589 201.859C489.573 203.047 489.002 204.659 489 206.34V273.358C489.002 275.039 489.573 276.651 490.589 277.839C491.605 279.028 492.983 279.696 494.419 279.698H524.334L523.301 286.943H516.871C516.46 286.943 516.066 287.134 515.776 287.474C515.486 287.814 515.323 288.274 515.323 288.755V294.189C515.323 294.669 515.486 295.13 515.776 295.469C516.066 295.809 516.46 296 516.871 296H557.129C557.219 295.999 557.308 295.99 557.396 295.971C557.563 295.989 557.733 296 557.903 296H574.935C576.372 295.998 577.75 295.33 578.766 294.141C579.782 292.953 580.353 291.341 580.355 289.66V279.632C581.644 279.413 582.822 278.658 583.675 277.506C584.528 276.354 584.998 274.882 585 273.358V206.34C584.998 204.659 584.427 203.047 583.411 201.859C582.395 200.67 581.017 200.002 579.581 200ZM494.419 276.075C493.804 276.075 493.213 275.788 492.778 275.279C492.342 274.77 492.097 274.079 492.097 273.358V268.83H552.484V276.075H494.419ZM552.484 279.698V286.943H550.699L549.666 279.698H552.484ZM547.56 286.943H526.44L527.474 279.698H546.526L547.56 286.943ZM518.419 292.377V290.566H552.54C552.617 291.194 552.775 291.805 553.008 292.377H518.419ZM577.258 289.66C577.258 290.381 577.013 291.072 576.577 291.581C576.142 292.09 575.551 292.377 574.935 292.377H557.903C557.287 292.377 556.697 292.09 556.261 291.581C555.826 291.072 555.581 290.381 555.581 289.66V251.623C555.581 250.902 555.826 250.212 556.261 249.702C556.697 249.193 557.287 248.906 557.903 248.906H560.657L561.854 253.101C561.956 253.462 562.154 253.775 562.417 253.998C562.681 254.22 562.998 254.34 563.323 254.34H569.516C569.841 254.34 570.158 254.22 570.422 253.998C570.685 253.775 570.882 253.462 570.985 253.101L572.181 248.906H574.935C575.551 248.906 576.142 249.193 576.577 249.702C577.013 250.212 577.258 250.902 577.258 251.623V289.66ZM563.923 248.906H568.916L568.399 250.717H564.439L563.923 248.906ZM581.903 273.358C581.902 273.92 581.753 274.467 581.476 274.925C581.199 275.383 580.807 275.729 580.355 275.917V268.83H581.903V273.358ZM581.903 265.208H580.355V251.623C580.353 249.942 579.782 248.33 578.766 247.142C577.75 245.953 576.372 245.285 574.935 245.283H557.903C556.466 245.285 555.089 245.953 554.073 247.142C553.057 248.33 552.485 249.942 552.484 251.623V265.208H492.097V206.34C492.097 205.619 492.342 204.928 492.778 204.419C493.213 203.91 493.804 203.623 494.419 203.623H579.581C580.196 203.623 580.787 203.91 581.222 204.419C581.658 204.928 581.903 205.619 581.903 206.34V265.208Z" fill="url(#paint3_linear)"/>
<path d="M523.579 106.894C521.023 105.854 517.785 105.208 514.301 105.024C510.805 98.1409 505.292 92.5304 498.524 88.9671V81.7419C498.524 79.4116 496.598 77.3465 493.103 75.9258C490.048 74.6832 486.021 74 481.762 74C477.503 74 473.476 74.6832 470.421 75.9258C466.926 77.3465 465 79.4116 465 81.7419V88.9671C458.248 92.5196 452.746 98.1118 449.251 104.974C445.181 105.026 441.352 105.701 438.421 106.894C434.926 108.314 433 110.379 433 112.71V131.29C433 133.621 434.926 135.686 438.421 137.106C441.352 138.299 445.181 138.974 449.251 139.026C452.746 145.888 458.248 151.48 465 155.033V162.258C465 164.588 466.926 166.654 470.421 168.074C473.476 169.317 477.503 170 481.762 170C486.021 170 490.048 169.317 493.103 168.074C496.598 166.654 498.524 164.588 498.524 162.258V155.033C505.292 151.47 510.805 145.859 514.301 138.976C517.785 138.792 521.023 138.146 523.579 137.106C527.074 135.686 529 133.621 529 131.29V112.71C529 110.379 527.074 108.314 523.579 106.894ZM481.762 77.0968C490.133 77.0968 495.476 79.8471 495.476 81.7419C495.476 83.6368 490.133 86.3871 481.762 86.3871C473.39 86.3871 468.048 83.6368 468.048 81.7419C468.048 79.8471 473.39 77.0968 481.762 77.0968ZM468.048 86.3445C468.8 86.8235 469.594 87.2298 470.421 87.5581C473.474 88.8006 477.503 89.4839 481.762 89.4839C486.021 89.4839 490.05 88.8006 493.103 87.5581C493.93 87.2298 494.724 86.8235 495.476 86.3445V91.0323C495.476 92.9271 490.133 95.6774 481.762 95.6774C473.39 95.6774 468.048 92.9271 468.048 91.0323V86.3445ZM468.048 95.6348C468.8 96.1138 469.594 96.5201 470.421 96.8484C473.474 98.091 477.503 98.7742 481.762 98.7742C486.021 98.7742 490.05 98.091 493.103 96.8484C493.93 96.5201 494.724 96.1138 495.476 95.6348V100.323C495.476 102.217 490.133 104.968 481.762 104.968C473.39 104.968 468.048 102.217 468.048 100.323V95.6348ZM449.762 108.065C458.133 108.065 463.476 110.815 463.476 112.71C463.476 114.605 458.133 117.355 449.762 117.355C441.39 117.355 436.048 114.605 436.048 112.71C436.048 110.815 441.39 108.065 449.762 108.065ZM436.048 117.312C436.8 117.791 437.594 118.198 438.421 118.526C441.474 119.768 445.503 120.452 449.762 120.452C454.021 120.452 458.05 119.768 461.103 118.526C461.93 118.198 462.724 117.791 463.476 117.312V122C463.476 123.895 458.133 126.645 449.762 126.645C441.39 126.645 436.048 123.895 436.048 122V117.312ZM436.048 131.29V126.603C436.8 127.082 437.594 127.488 438.421 127.816C441.474 129.059 445.503 129.742 449.762 129.742C454.021 129.742 458.05 129.059 461.103 127.816C461.93 127.488 462.724 127.082 463.476 126.603V131.29C463.476 133.185 458.133 135.935 449.762 135.935C441.39 135.935 436.048 133.185 436.048 131.29ZM495.476 162.258C495.476 164.153 490.133 166.903 481.762 166.903C473.39 166.903 468.048 164.153 468.048 162.258V157.57C468.8 158.049 469.594 158.456 470.421 158.784C473.474 160.026 477.503 160.71 481.762 160.71C486.021 160.71 490.05 160.026 493.103 158.784C493.93 158.456 494.724 158.049 495.476 157.57V162.258ZM495.476 152.968C495.476 154.863 490.133 157.613 481.762 157.613C473.39 157.613 468.048 154.863 468.048 152.968V148.28C468.8 148.759 469.594 149.165 470.421 149.494C473.474 150.736 477.503 151.419 481.762 151.419C486.021 151.419 490.05 150.736 493.103 149.494C493.93 149.165 494.724 148.759 495.476 148.28V152.968ZM481.762 148.323C473.39 148.323 468.048 145.572 468.048 143.677C468.048 141.783 473.39 139.032 481.762 139.032C490.133 139.032 495.476 141.783 495.476 143.677C495.476 145.572 490.133 148.323 481.762 148.323ZM498.524 151.505V143.677C498.524 141.347 496.598 139.282 493.103 137.861C490.048 136.619 486.021 135.935 481.762 135.935C477.503 135.935 473.476 136.619 470.421 137.861C466.926 139.282 465 141.347 465 143.677V151.505C459.873 148.483 455.619 144.143 452.665 138.922C455.829 138.686 458.754 138.063 461.103 137.106C464.598 135.686 466.524 133.621 466.524 131.29V112.71C466.524 110.379 464.598 108.314 461.103 106.894C458.754 105.937 455.829 105.314 452.665 105.076C455.62 99.8559 459.874 95.5172 465 92.4955V100.323C465 102.653 466.926 104.718 470.421 106.139C473.476 107.381 477.503 108.065 481.762 108.065C486.021 108.065 490.048 107.381 493.103 106.139C496.598 104.718 498.524 102.653 498.524 100.323V92.4955C503.623 95.5015 507.86 99.8105 510.813 104.995C507.088 105.13 503.608 105.79 500.897 106.894C497.402 108.314 495.476 110.379 495.476 112.71V131.29C495.476 133.621 497.402 135.686 500.897 137.106C503.608 138.21 507.088 138.87 510.813 139.005C507.86 144.189 503.623 148.499 498.524 151.505ZM525.952 131.29C525.952 133.185 520.61 135.935 512.238 135.935C503.867 135.935 498.524 133.185 498.524 131.29V126.603C499.276 127.082 500.07 127.488 500.897 127.816C503.95 129.059 507.979 129.742 512.238 129.742C516.497 129.742 520.526 129.059 523.579 127.816C524.406 127.488 525.2 127.082 525.952 126.603V131.29ZM525.952 122C525.952 123.895 520.61 126.645 512.238 126.645C503.867 126.645 498.524 123.895 498.524 122V117.312C499.276 117.791 500.07 118.198 500.897 118.526C503.95 119.768 507.979 120.452 512.238 120.452C516.497 120.452 520.526 119.768 523.579 118.526C524.406 118.198 525.2 117.791 525.952 117.312V122ZM512.238 117.355C503.867 117.355 498.524 114.605 498.524 112.71C498.524 110.815 503.867 108.065 512.238 108.065C520.61 108.065 525.952 110.815 525.952 112.71C525.952 114.605 520.61 117.355 512.238 117.355Z" fill="url(#paint4_linear)"/>
<path d="M535.452 360.258H526.932C525.938 355.405 524.025 350.787 521.295 346.654L527.321 340.628C527.611 340.338 527.774 339.944 527.774 339.533C527.774 339.122 527.611 338.728 527.321 338.437L518.561 329.679C518.27 329.389 517.877 329.226 517.466 329.226C517.056 329.226 516.662 329.389 516.372 329.679L510.346 335.705C506.213 332.975 501.595 331.062 496.742 330.068V321.548C496.742 321.138 496.579 320.744 496.288 320.454C495.998 320.163 495.604 320 495.194 320H482.806C482.396 320 482.002 320.163 481.712 320.454C481.421 320.744 481.258 321.138 481.258 321.548V330.068C476.405 331.062 471.787 332.975 467.654 335.705L461.628 329.679C461.338 329.389 460.944 329.226 460.534 329.226C460.123 329.226 459.73 329.389 459.439 329.679L450.679 338.437C450.389 338.728 450.226 339.122 450.226 339.533C450.226 339.944 450.389 340.338 450.679 340.628L456.705 346.654C453.975 350.787 452.062 355.405 451.068 360.258H442.548C442.138 360.258 441.744 360.421 441.454 360.712C441.163 361.002 441 361.396 441 361.806V374.194C441 374.604 441.163 374.998 441.454 375.288C441.744 375.579 442.138 375.742 442.548 375.742H451.068C452.062 380.595 453.975 385.213 456.705 389.346L450.679 395.372C450.389 395.662 450.226 396.056 450.226 396.467C450.226 396.878 450.389 397.272 450.679 397.563L459.439 406.321C459.73 406.611 460.123 406.774 460.534 406.774C460.944 406.774 461.338 406.611 461.628 406.321L467.654 400.295C471.787 403.025 476.405 404.938 481.258 405.932V414.452C481.258 414.862 481.421 415.256 481.712 415.546C482.002 415.837 482.396 416 482.806 416H495.194C495.604 416 495.998 415.837 496.288 415.546C496.579 415.256 496.742 414.862 496.742 414.452V405.932C501.595 404.938 506.213 403.025 510.346 400.295L516.372 406.321C516.662 406.611 517.056 406.774 517.466 406.774C517.877 406.774 518.27 406.611 518.561 406.321L527.321 397.563C527.611 397.272 527.774 396.878 527.774 396.467C527.774 396.056 527.611 395.662 527.321 395.372L521.295 389.346C524.025 385.213 525.938 380.595 526.932 375.742H535.452C535.862 375.742 536.256 375.579 536.546 375.288C536.837 374.998 537 374.604 537 374.194V361.806C537 361.396 536.837 361.002 536.546 360.712C536.256 360.421 535.862 360.258 535.452 360.258ZM533.903 372.645H525.645C525.278 372.645 524.924 372.775 524.644 373.012C524.364 373.249 524.178 373.577 524.117 373.938C523.221 379.233 521.14 384.256 518.03 388.634C517.817 388.932 517.717 389.296 517.748 389.662C517.778 390.027 517.937 390.369 518.197 390.628L524.036 396.467L517.467 403.036L511.626 397.197C511.367 396.937 511.025 396.778 510.661 396.748C510.296 396.717 509.932 396.817 509.634 397.03C505.256 400.14 500.233 402.221 494.938 403.117C494.577 403.178 494.249 403.364 494.012 403.644C493.775 403.924 493.645 404.278 493.645 404.645V412.903H484.355V404.645C484.355 404.278 484.225 403.924 483.988 403.644C483.751 403.364 483.423 403.178 483.062 403.117C477.767 402.221 472.744 400.14 468.366 397.03C468.068 396.818 467.704 396.718 467.339 396.748C466.975 396.779 466.633 396.938 466.374 397.197L460.533 403.036L453.964 396.467L459.803 390.628C460.063 390.369 460.222 390.027 460.252 389.662C460.283 389.296 460.183 388.932 459.97 388.634C456.86 384.256 454.779 379.233 453.883 373.938C453.822 373.577 453.636 373.249 453.356 373.012C453.076 372.775 452.722 372.645 452.355 372.645H444.097V363.355H452.355C452.722 363.355 453.076 363.225 453.356 362.988C453.636 362.751 453.822 362.423 453.883 362.062C454.779 356.767 456.86 351.744 459.97 347.366C460.183 347.068 460.283 346.704 460.252 346.338C460.222 345.973 460.063 345.631 459.803 345.372L453.964 339.533L460.533 332.964L466.374 338.803C466.633 339.063 466.975 339.222 467.339 339.252C467.704 339.283 468.068 339.183 468.366 338.97C472.744 335.86 477.767 333.779 483.062 332.883C483.423 332.822 483.751 332.636 483.988 332.356C484.225 332.076 484.355 331.722 484.355 331.355V323.097H493.645V331.355C493.645 331.722 493.775 332.076 494.012 332.356C494.249 332.636 494.577 332.822 494.938 332.883C500.233 333.779 505.256 335.86 509.634 338.97C509.932 339.183 510.296 339.283 510.661 339.252C511.025 339.222 511.367 339.063 511.626 338.803L517.467 332.964L524.036 339.533L518.197 345.372C517.937 345.631 517.778 345.973 517.748 346.338C517.717 346.704 517.817 347.068 518.03 347.366C521.14 351.744 523.221 356.767 524.117 362.062C524.178 362.423 524.364 362.751 524.644 362.988C524.924 363.225 525.278 363.355 525.645 363.355H533.903V372.645Z" fill="url(#paint5_linear)"/>
<path d="M489 338.581C472.778 338.581 459.581 351.778 459.581 368C459.581 384.222 472.778 397.419 489 397.419C505.222 397.419 518.419 384.222 518.419 368C518.419 351.778 505.222 338.581 489 338.581ZM495.194 393.585C494.683 393.708 494.168 393.819 493.645 393.912V368H495.194V393.585ZM485.312 360.258H492.688L495.011 364.903H482.989L485.312 360.258ZM486.86 357.161L489 352.882L491.14 357.161H486.86ZM482.806 368H484.368C484.36 368.064 484.355 368.129 484.355 368.193V393.912C483.832 393.819 483.317 393.708 482.806 393.585V368ZM487.452 394.276V368.193C487.451 368.129 487.447 368.064 487.438 368H490.548V394.276C490.036 394.306 489.52 394.323 489 394.323C488.48 394.323 487.964 394.306 487.452 394.276V394.276ZM498.29 392.628V364.903C498.29 364.663 498.234 364.426 498.127 364.211L490.385 348.727C490.256 348.47 490.059 348.253 489.814 348.102C489.569 347.951 489.288 347.871 489 347.871C488.713 347.871 488.431 347.951 488.186 348.102C487.941 348.253 487.744 348.47 487.615 348.727L479.873 364.211C479.766 364.426 479.71 364.663 479.71 364.903V392.628C474.708 390.735 470.4 387.365 467.358 382.966C464.316 378.568 462.684 373.348 462.677 368C462.677 353.486 474.486 341.677 489 341.677C503.514 341.677 515.323 353.486 515.323 368C515.316 373.348 513.684 378.568 510.642 382.966C507.6 387.365 503.292 390.735 498.29 392.628V392.628Z" fill="url(#paint6_linear)"/>
<path d="M421.581 400H336.419C334.983 400.002 333.605 400.67 332.589 401.859C331.573 403.047 331.002 404.659 331 406.34V473.358C331.002 475.039 331.573 476.651 332.589 477.839C333.605 479.028 334.983 479.696 336.419 479.698H366.334L365.301 486.943H358.871C358.46 486.943 358.066 487.134 357.776 487.474C357.486 487.814 357.323 488.274 357.323 488.755V492.377H351.129C350.718 492.377 350.325 492.568 350.034 492.908C349.744 493.248 349.581 493.708 349.581 494.189C349.581 494.669 349.744 495.13 350.034 495.469C350.325 495.809 350.718 496 351.129 496H406.871C407.282 496 407.675 495.809 407.966 495.469C408.256 495.13 408.419 494.669 408.419 494.189C408.419 493.708 408.256 493.248 407.966 492.908C407.675 492.568 407.282 492.377 406.871 492.377H400.677V488.755C400.677 488.274 400.514 487.814 400.224 487.474C399.934 487.134 399.54 486.943 399.129 486.943H392.699L391.666 479.698H421.581C423.017 479.696 424.395 479.028 425.411 477.839C426.427 476.651 426.998 475.039 427 473.358V406.34C426.998 404.659 426.427 403.047 425.411 401.859C424.395 400.67 423.017 400.002 421.581 400ZM397.581 490.566V492.377H360.419V490.566H397.581ZM368.44 486.943L369.474 479.698H388.526L389.56 486.943H368.44ZM423.903 473.358C423.903 474.079 423.658 474.77 423.222 475.279C422.787 475.788 422.196 476.075 421.581 476.075H336.419C335.804 476.075 335.213 475.788 334.778 475.279C334.342 474.77 334.097 474.079 334.097 473.358V468.83H423.903V473.358ZM423.903 465.208H334.097V406.34C334.097 405.619 334.342 404.928 334.778 404.419C335.213 403.91 335.804 403.623 336.419 403.623H421.581C422.196 403.623 422.787 403.91 423.222 404.419C423.658 404.928 423.903 405.619 423.903 406.34V465.208Z" fill="url(#paint7_linear)"/>
<path d="M348.032 470.642H338.742C338.331 470.642 337.937 470.832 337.647 471.172C337.357 471.512 337.194 471.973 337.194 472.453C337.194 472.933 337.357 473.394 337.647 473.734C337.937 474.073 338.331 474.264 338.742 474.264H348.032C348.443 474.264 348.837 474.073 349.127 473.734C349.418 473.394 349.581 472.933 349.581 472.453C349.581 471.973 349.418 471.512 349.127 471.172C348.837 470.832 348.443 470.642 348.032 470.642Z" fill="url(#paint8_linear)"/>
<path d="M354.226 470.642H352.677C352.267 470.642 351.873 470.832 351.583 471.172C351.292 471.512 351.129 471.973 351.129 472.453C351.129 472.933 351.292 473.394 351.583 473.734C351.873 474.073 352.267 474.264 352.677 474.264H354.226C354.636 474.264 355.03 474.073 355.321 473.734C355.611 473.394 355.774 472.933 355.774 472.453C355.774 471.973 355.611 471.512 355.321 471.172C355.03 470.832 354.636 470.642 354.226 470.642Z" fill="url(#paint9_linear)"/>
<path d="M413.065 457.963C412.654 457.963 412.26 458.153 411.97 458.493C411.679 458.833 411.516 459.293 411.516 459.774C411.516 460.254 411.679 460.715 411.97 461.055C412.26 461.394 412.654 461.585 413.065 461.585H417.71C418.12 461.585 418.514 461.394 418.805 461.055C419.095 460.715 419.258 460.254 419.258 459.774V412.679C419.258 412.199 419.095 411.738 418.805 411.399C418.514 411.059 418.12 410.868 417.71 410.868H413.065C412.654 410.868 412.26 411.059 411.97 411.399C411.679 411.738 411.516 412.199 411.516 412.679C411.516 413.16 411.679 413.621 411.97 413.96C412.26 414.3 412.654 414.491 413.065 414.491H416.161V457.963H413.065Z" fill="url(#paint10_linear)"/>
<path d="M340.29 461.585H344.935C345.346 461.585 345.74 461.394 346.03 461.055C346.321 460.715 346.484 460.254 346.484 459.774C346.484 459.293 346.321 458.833 346.03 458.493C345.74 458.153 345.346 457.963 344.935 457.963H341.839V414.491H344.935C345.346 414.491 345.74 414.3 346.03 413.96C346.321 413.621 346.484 413.16 346.484 412.679C346.484 412.199 346.321 411.738 346.03 411.399C345.74 411.059 345.346 410.868 344.935 410.868H340.29C339.88 410.868 339.486 411.059 339.195 411.399C338.905 411.738 338.742 412.199 338.742 412.679V459.774C338.742 460.254 338.905 460.715 339.195 461.055C339.486 461.394 339.88 461.585 340.29 461.585Z" fill="url(#paint11_linear)"/>
<path d="M351.129 416.302H406.871C407.282 416.302 407.675 416.111 407.966 415.771C408.256 415.432 408.419 414.971 408.419 414.491C408.419 414.01 408.256 413.549 407.966 413.21C407.675 412.87 407.282 412.679 406.871 412.679H351.129C350.718 412.679 350.325 412.87 350.034 413.21C349.744 413.549 349.581 414.01 349.581 414.491C349.581 414.971 349.744 415.432 350.034 415.771C350.325 416.111 350.718 416.302 351.129 416.302V416.302Z" fill="url(#paint12_linear)"/>
<path d="M351.129 423.547H406.871C407.282 423.547 407.675 423.356 407.966 423.016C408.256 422.677 408.419 422.216 408.419 421.736C408.419 421.255 408.256 420.795 407.966 420.455C407.675 420.115 407.282 419.924 406.871 419.924H351.129C350.718 419.924 350.325 420.115 350.034 420.455C349.744 420.795 349.581 421.255 349.581 421.736C349.581 422.216 349.744 422.677 350.034 423.016C350.325 423.356 350.718 423.547 351.129 423.547V423.547Z" fill="url(#paint13_linear)"/>
<path d="M351.129 430.793H406.871C407.282 430.793 407.675 430.602 407.966 430.262C408.256 429.922 408.419 429.462 408.419 428.981C408.419 428.501 408.256 428.04 407.966 427.7C407.675 427.361 407.282 427.17 406.871 427.17H351.129C350.718 427.17 350.325 427.361 350.034 427.7C349.744 428.04 349.581 428.501 349.581 428.981C349.581 429.462 349.744 429.922 350.034 430.262C350.325 430.602 350.718 430.793 351.129 430.793V430.793Z" fill="url(#paint14_linear)"/>
<path d="M351.129 438.038H375.903C376.314 438.038 376.708 437.847 376.998 437.507C377.288 437.167 377.452 436.707 377.452 436.226C377.452 435.746 377.288 435.285 376.998 434.946C376.708 434.606 376.314 434.415 375.903 434.415H351.129C350.718 434.415 350.325 434.606 350.034 434.946C349.744 435.285 349.581 435.746 349.581 436.226C349.581 436.707 349.744 437.167 350.034 437.507C350.325 437.847 350.718 438.038 351.129 438.038V438.038Z" fill="url(#paint15_linear)"/>
<path d="M380.548 434.415C380.138 434.415 379.744 434.606 379.454 434.946C379.163 435.285 379 435.746 379 436.226C379 436.707 379.163 437.167 379.454 437.507C379.744 437.847 380.138 438.038 380.548 438.038H382.097C382.507 438.038 382.901 437.847 383.192 437.507C383.482 437.167 383.645 436.707 383.645 436.226C383.645 435.746 383.482 435.285 383.192 434.946C382.901 434.606 382.507 434.415 382.097 434.415H380.548Z" fill="url(#paint16_linear)"/>
<path d="M351.129 445.283H406.871C407.282 445.283 407.675 445.092 407.966 444.752C408.256 444.413 408.419 443.952 408.419 443.471C408.419 442.991 408.256 442.53 407.966 442.191C407.675 441.851 407.282 441.66 406.871 441.66H351.129C350.718 441.66 350.325 441.851 350.034 442.191C349.744 442.53 349.581 442.991 349.581 443.471C349.581 443.952 349.744 444.413 350.034 444.752C350.325 445.092 350.718 445.283 351.129 445.283V445.283Z" fill="url(#paint17_linear)"/>
<path d="M351.129 452.528H406.871C407.282 452.528 407.675 452.338 407.966 451.998C408.256 451.658 408.419 451.197 408.419 450.717C408.419 450.237 408.256 449.776 407.966 449.436C407.675 449.097 407.282 448.906 406.871 448.906H351.129C350.718 448.906 350.325 449.097 350.034 449.436C349.744 449.776 349.581 450.237 349.581 450.717C349.581 451.197 349.744 451.658 350.034 451.998C350.325 452.338 350.718 452.528 351.129 452.528V452.528Z" fill="url(#paint18_linear)"/>
<path d="M351.129 459.774H375.903C376.314 459.774 376.708 459.583 376.998 459.243C377.288 458.903 377.452 458.443 377.452 457.962C377.452 457.482 377.288 457.021 376.998 456.681C376.708 456.342 376.314 456.151 375.903 456.151H351.129C350.718 456.151 350.325 456.342 350.034 456.681C349.744 457.021 349.581 457.482 349.581 457.962C349.581 458.443 349.744 458.903 350.034 459.243C350.325 459.583 350.718 459.774 351.129 459.774V459.774Z" fill="url(#paint19_linear)"/>
<path d="M382.097 456.151H380.548C380.138 456.151 379.744 456.342 379.454 456.681C379.163 457.021 379 457.482 379 457.962C379 458.443 379.163 458.903 379.454 459.243C379.744 459.583 380.138 459.774 380.548 459.774H382.097C382.507 459.774 382.901 459.583 383.192 459.243C383.482 458.903 383.645 458.443 383.645 457.962C383.645 457.482 383.482 457.021 383.192 456.681C382.901 456.342 382.507 456.151 382.097 456.151Z" fill="url(#paint20_linear)"/>
<defs>
<linearGradient id="paint0_linear" x1="303.703" y1="106.407" x2="408.031" y2="6.85313" gradientUnits="userSpaceOnUse">
<stop stop-color="#003F8A"/>
<stop offset="0.518" stop-color="#00D7DF"/>
<stop offset="1" stop-color="#006DF0"/>
</linearGradient>
<linearGradient id="paint1_linear" x1="16.5509" y1="1586.66" x2="835.919" y2="-1540.83" gradientUnits="userSpaceOnUse">
<stop stop-color="#003F8A"/>
<stop offset="0.518" stop-color="#00D7DF"/>
<stop offset="1" stop-color="#006DF0"/>
</linearGradient>
<linearGradient id="paint2_linear" x1="336.037" y1="1671.04" x2="1905.13" y2="-574.894" gradientUnits="userSpaceOnUse">
<stop stop-color="#003F8A"/>
<stop offset="0.518" stop-color="#00D7DF"/>
<stop offset="1" stop-color="#006DF0"/>
</linearGradient>
<linearGradient id="paint3_linear" x1="489.249" y1="301.143" x2="599.295" y2="207.071" gradientUnits="userSpaceOnUse">
<stop stop-color="#003F8A"/>
<stop offset="0.518" stop-color="#00D7DF"/>
<stop offset="1" stop-color="#006DF0"/>
</linearGradient>
<linearGradient id="paint4_linear" x1="435.04" y1="168.701" x2="528.681" y2="76.5468" gradientUnits="userSpaceOnUse">
<stop stop-color="#003F8A"/>
<stop offset="0.518" stop-color="#00D7DF"/>
<stop offset="1" stop-color="#006DF0"/>
</linearGradient>
<linearGradient id="paint5_linear" x1="441.226" y1="415.774" x2="537.255" y2="319.745" gradientUnits="userSpaceOnUse">
<stop stop-color="#003F8A"/>
<stop offset="0.518" stop-color="#00D7DF"/>
<stop offset="1" stop-color="#006DF0"/>
</linearGradient>
<linearGradient id="paint6_linear" x1="998.897" y1="29924.7" x2="30191.7" y2="731.917" gradientUnits="userSpaceOnUse">
<stop stop-color="#003F8A"/>
<stop offset="0.518" stop-color="#00D7DF"/>
<stop offset="1" stop-color="#006DF0"/>
</linearGradient>
<linearGradient id="paint7_linear" x1="328.097" y1="499.396" x2="440.104" y2="403.648" gradientUnits="userSpaceOnUse">
<stop stop-color="#003F8A"/>
<stop offset="0.518" stop-color="#00D7DF"/>
<stop offset="1" stop-color="#006DF0"/>
</linearGradient>
<linearGradient id="paint8_linear" x1="2.77907" y1="2162.4" x2="980.303" y2="-1180.1" gradientUnits="userSpaceOnUse">
<stop stop-color="#003F8A"/>
<stop offset="0.518" stop-color="#00D7DF"/>
<stop offset="1" stop-color="#006DF0"/>
</linearGradient>
<linearGradient id="paint9_linear" x1="346.498" y1="2256.59" x2="2106.03" y2="0.423954" gradientUnits="userSpaceOnUse">
<stop stop-color="#003F8A"/>
<stop offset="0.518" stop-color="#00D7DF"/>
<stop offset="1" stop-color="#006DF0"/>
</linearGradient>
<linearGradient id="paint10_linear" x1="1023.15" y1="29471.5" x2="8600.78" y2="28314.8" gradientUnits="userSpaceOnUse">
<stop stop-color="#003F8A"/>
<stop offset="0.518" stop-color="#00D7DF"/>
<stop offset="1" stop-color="#006DF0"/>
</linearGradient>
<linearGradient id="paint11_linear" x1="-505.106" y1="19936.8" x2="7072.52" y2="18780" gradientUnits="userSpaceOnUse">
<stop stop-color="#003F8A"/>
<stop offset="0.518" stop-color="#00D7DF"/>
<stop offset="1" stop-color="#006DF0"/>
</linearGradient>
<linearGradient id="paint12_linear" x1="-3357.08" y1="1974.03" x2="-3134.53" y2="-1640.65" gradientUnits="userSpaceOnUse">
<stop stop-color="#003F8A"/>
<stop offset="0.518" stop-color="#00D7DF"/>
<stop offset="1" stop-color="#006DF0"/>
</linearGradient>
<linearGradient id="paint13_linear" x1="-2415.66" y1="2039.23" x2="-2193.11" y2="-1575.44" gradientUnits="userSpaceOnUse">
<stop stop-color="#003F8A"/>
<stop offset="0.518" stop-color="#00D7DF"/>
<stop offset="1" stop-color="#006DF0"/>
</linearGradient>
<linearGradient id="paint14_linear" x1="-1474.24" y1="2104.44" x2="-1251.69" y2="-1510.24" gradientUnits="userSpaceOnUse">
<stop stop-color="#003F8A"/>
<stop offset="0.518" stop-color="#00D7DF"/>
<stop offset="1" stop-color="#006DF0"/>
</linearGradient>
<linearGradient id="paint15_linear" x1="-1183.24" y1="2024.74" x2="-719.461" y2="-1543.35" gradientUnits="userSpaceOnUse">
<stop stop-color="#003F8A"/>
<stop offset="0.518" stop-color="#00D7DF"/>
<stop offset="1" stop-color="#006DF0"/>
</linearGradient>
<linearGradient id="paint16_linear" x1="337.207" y1="2191.39" x2="2096.74" y2="-64.7837" gradientUnits="userSpaceOnUse">
<stop stop-color="#003F8A"/>
<stop offset="0.518" stop-color="#00D7DF"/>
<stop offset="1" stop-color="#006DF0"/>
</linearGradient>
<linearGradient id="paint17_linear" x1="408.596" y1="2234.86" x2="631.148" y2="-1379.82" gradientUnits="userSpaceOnUse">
<stop stop-color="#003F8A"/>
<stop offset="0.518" stop-color="#00D7DF"/>
<stop offset="1" stop-color="#006DF0"/>
</linearGradient>
<linearGradient id="paint18_linear" x1="1350.01" y1="2300.06" x2="1572.57" y2="-1314.61" gradientUnits="userSpaceOnUse">
<stop stop-color="#003F8A"/>
<stop offset="0.518" stop-color="#00D7DF"/>
<stop offset="1" stop-color="#006DF0"/>
</linearGradient>
<linearGradient id="paint19_linear" x1="328.097" y1="499.395" x2="440.104" y2="403.648" gradientUnits="userSpaceOnUse">
<stop stop-color="#003F8A"/>
<stop offset="0.518" stop-color="#00D7DF"/>
<stop offset="1" stop-color="#006DF0"/>
</linearGradient>
<linearGradient id="paint20_linear" x1="560.175" y1="2387.01" x2="2319.7" y2="130.839" gradientUnits="userSpaceOnUse">
<stop stop-color="#003F8A"/>
<stop offset="0.518" stop-color="#00D7DF"/>
<stop offset="1" stop-color="#006DF0"/>
</linearGradient>
</defs>
</svg>
