<svg width="850" height="433" viewBox="0 0 850 433" fill="none" xmlns="http://www.w3.org/2000/svg">
<g filter="url(#filter0_d)">
<path d="M224.129 166.462H217.379V115.274H224.129V166.462ZM235.941 129.688L232.25 127.157C234.43 124.11 235.555 120.899 235.625 117.524V112.462H242.059V117.032C242.035 119.376 241.449 121.719 240.301 124.063C239.176 126.383 237.723 128.258 235.941 129.688ZM255.312 128.422L255.488 132.641C258.277 129.36 262.039 127.719 266.773 127.719C272.094 127.719 275.715 129.758 277.637 133.837C278.902 132.008 280.543 130.532 282.559 129.407C284.598 128.282 287 127.719 289.766 127.719C298.109 127.719 302.352 132.137 302.492 140.973V166.462H295.988V141.36C295.988 138.641 295.367 136.614 294.125 135.278C292.883 133.919 290.797 133.239 287.867 133.239C285.453 133.239 283.449 133.965 281.855 135.419C280.262 136.848 279.336 138.782 279.078 141.219V166.462H272.539V141.536C272.539 136.005 269.832 133.239 264.418 133.239C260.152 133.239 257.234 135.055 255.664 138.688V166.462H249.16V128.422H255.312ZM352.66 115.274H359.445V151.52C359.445 156.419 357.969 160.251 355.016 163.016C352.086 165.782 348.172 167.165 343.273 167.165C338.188 167.165 334.227 165.864 331.391 163.262C328.555 160.661 327.137 157.016 327.137 152.329H333.887C333.887 155.258 334.684 157.544 336.277 159.184C337.895 160.825 340.227 161.645 343.273 161.645C346.062 161.645 348.312 160.766 350.023 159.008C351.758 157.251 352.637 154.79 352.66 151.626V115.274ZM368.199 147.09C368.199 143.364 368.926 140.012 370.379 137.036C371.855 134.059 373.895 131.762 376.496 130.145C379.121 128.528 382.109 127.719 385.461 127.719C390.641 127.719 394.824 129.512 398.012 133.098C401.223 136.684 402.828 141.454 402.828 147.407V147.864C402.828 151.567 402.113 154.895 400.684 157.848C399.277 160.778 397.25 163.063 394.602 164.704C391.977 166.344 388.953 167.165 385.531 167.165C380.375 167.165 376.191 165.372 372.98 161.786C369.793 158.2 368.199 153.454 368.199 147.547V147.09ZM374.738 147.864C374.738 152.083 375.711 155.469 377.656 158.024C379.625 160.579 382.25 161.856 385.531 161.856C388.836 161.856 391.461 160.567 393.406 157.989C395.352 155.387 396.324 151.755 396.324 147.09C396.324 142.919 395.328 139.544 393.336 136.965C391.367 134.364 388.742 133.063 385.461 133.063C382.25 133.063 379.66 134.34 377.691 136.895C375.723 139.45 374.738 143.106 374.738 147.864ZM417.137 128.422L417.348 133.204C420.254 129.547 424.051 127.719 428.738 127.719C436.777 127.719 440.832 132.255 440.902 141.325V166.462H434.398V141.29C434.375 138.547 433.742 136.52 432.5 135.208C431.281 133.895 429.371 133.239 426.77 133.239C424.66 133.239 422.809 133.801 421.215 134.926C419.621 136.051 418.379 137.528 417.488 139.356V166.462H410.984V128.422H417.137ZM474.195 166.462C473.82 165.712 473.516 164.376 473.281 162.454C470.258 165.594 466.648 167.165 462.453 167.165C458.703 167.165 455.621 166.11 453.207 164.001C450.816 161.868 449.621 159.172 449.621 155.915C449.621 151.954 451.121 148.883 454.121 146.704C457.145 144.501 461.387 143.399 466.848 143.399H473.176V140.411C473.176 138.137 472.496 136.333 471.137 134.997C469.777 133.637 467.773 132.958 465.125 132.958C462.805 132.958 460.859 133.544 459.289 134.715C457.719 135.887 456.934 137.305 456.934 138.969H450.395C450.395 137.071 451.062 135.243 452.398 133.485C453.758 131.704 455.586 130.297 457.883 129.266C460.203 128.235 462.746 127.719 465.512 127.719C469.895 127.719 473.328 128.821 475.812 131.024C478.297 133.204 479.586 136.215 479.68 140.059V157.567C479.68 161.059 480.125 163.837 481.016 165.899V166.462H474.195ZM463.402 161.505C465.441 161.505 467.375 160.977 469.203 159.922C471.031 158.868 472.355 157.497 473.176 155.809V148.005H468.078C460.109 148.005 456.125 150.337 456.125 155.001C456.125 157.04 456.805 158.633 458.164 159.782C459.523 160.93 461.27 161.505 463.402 161.505ZM498.699 119.212V128.422H505.801V133.45H498.699V157.04C498.699 158.563 499.016 159.712 499.648 160.485C500.281 161.235 501.359 161.61 502.883 161.61C503.633 161.61 504.664 161.469 505.977 161.188V166.462C504.266 166.93 502.602 167.165 500.984 167.165C498.078 167.165 495.887 166.286 494.41 164.528C492.934 162.77 492.195 160.274 492.195 157.04V133.45H485.27V128.422H492.195V119.212H498.699ZM519.934 133.028C522.816 129.489 526.566 127.719 531.184 127.719C539.223 127.719 543.277 132.255 543.348 141.325V166.462H536.844V141.29C536.82 138.547 536.188 136.52 534.945 135.208C533.727 133.895 531.816 133.239 529.215 133.239C527.105 133.239 525.254 133.801 523.66 134.926C522.066 136.051 520.824 137.528 519.934 139.356V166.462H513.43V112.462H519.934V133.028ZM576.57 166.462C576.195 165.712 575.891 164.376 575.656 162.454C572.633 165.594 569.023 167.165 564.828 167.165C561.078 167.165 557.996 166.11 555.582 164.001C553.191 161.868 551.996 159.172 551.996 155.915C551.996 151.954 553.496 148.883 556.496 146.704C559.52 144.501 563.762 143.399 569.223 143.399H575.551V140.411C575.551 138.137 574.871 136.333 573.512 134.997C572.152 133.637 570.148 132.958 567.5 132.958C565.18 132.958 563.234 133.544 561.664 134.715C560.094 135.887 559.309 137.305 559.309 138.969H552.77C552.77 137.071 553.438 135.243 554.773 133.485C556.133 131.704 557.961 130.297 560.258 129.266C562.578 128.235 565.121 127.719 567.887 127.719C572.27 127.719 575.703 128.821 578.188 131.024C580.672 133.204 581.961 136.215 582.055 140.059V157.567C582.055 161.059 582.5 163.837 583.391 165.899V166.462H576.57ZM565.777 161.505C567.816 161.505 569.75 160.977 571.578 159.922C573.406 158.868 574.73 157.497 575.551 155.809V148.005H570.453C562.484 148.005 558.5 150.337 558.5 155.001C558.5 157.04 559.18 158.633 560.539 159.782C561.898 160.93 563.645 161.505 565.777 161.505ZM598.402 128.422L598.613 133.204C601.52 129.547 605.316 127.719 610.004 127.719C618.043 127.719 622.098 132.255 622.168 141.325V166.462H615.664V141.29C615.641 138.547 615.008 136.52 613.766 135.208C612.547 133.895 610.637 133.239 608.035 133.239C605.926 133.239 604.074 133.801 602.48 134.926C600.887 136.051 599.645 137.528 598.754 139.356V166.462H592.25V128.422H598.402Z" fill="#DDDDDD"/>
<path d="M278.498 237.159H267.758V248.462H264.383V222.868H280.238V225.645H267.758V234.399H278.498V237.159ZM295.127 246.581C293.861 248.069 292.004 248.813 289.555 248.813C287.527 248.813 285.98 248.227 284.914 247.055C283.859 245.872 283.326 244.126 283.314 241.817V229.442H286.566V241.729C286.566 244.612 287.738 246.053 290.082 246.053C292.566 246.053 294.219 245.128 295.039 243.276V229.442H298.291V248.462H295.197L295.127 246.581ZM306.781 248.462H303.529V221.462H306.781V248.462ZM315.535 248.462H312.283V221.462H315.535V248.462ZM328.807 237.053C325.912 236.221 323.803 235.202 322.479 233.995C321.166 232.776 320.51 231.276 320.51 229.495C320.51 227.479 321.312 225.815 322.918 224.503C324.535 223.178 326.633 222.516 329.211 222.516C330.969 222.516 332.533 222.856 333.904 223.536C335.287 224.215 336.354 225.153 337.104 226.348C337.865 227.544 338.246 228.85 338.246 230.268H334.854C334.854 228.721 334.361 227.508 333.377 226.63C332.393 225.739 331.004 225.294 329.211 225.294C327.547 225.294 326.246 225.663 325.309 226.401C324.383 227.128 323.92 228.141 323.92 229.442C323.92 230.485 324.359 231.37 325.238 232.096C326.129 232.811 327.635 233.467 329.756 234.065C331.889 234.663 333.553 235.325 334.748 236.051C335.955 236.766 336.846 237.604 337.42 238.565C338.006 239.526 338.299 240.657 338.299 241.958C338.299 244.032 337.49 245.696 335.873 246.95C334.256 248.192 332.094 248.813 329.387 248.813C327.629 248.813 325.988 248.479 324.465 247.811C322.941 247.131 321.764 246.206 320.932 245.034C320.111 243.862 319.701 242.532 319.701 241.044H323.094C323.094 242.59 323.662 243.815 324.799 244.717C325.947 245.608 327.477 246.053 329.387 246.053C331.168 246.053 332.533 245.69 333.482 244.964C334.432 244.237 334.906 243.247 334.906 241.993C334.906 240.739 334.467 239.772 333.588 239.092C332.709 238.401 331.115 237.721 328.807 237.053ZM346.543 224.837V229.442H350.094V231.956H346.543V243.751C346.543 244.512 346.701 245.087 347.018 245.473C347.334 245.848 347.873 246.036 348.635 246.036C349.01 246.036 349.525 245.965 350.182 245.825V248.462C349.326 248.696 348.494 248.813 347.686 248.813C346.232 248.813 345.137 248.374 344.398 247.495C343.66 246.616 343.291 245.368 343.291 243.751V231.956H339.828V229.442H343.291V224.837H346.543ZM365.65 248.462C365.463 248.087 365.311 247.419 365.193 246.458C363.682 248.028 361.877 248.813 359.779 248.813C357.904 248.813 356.363 248.286 355.156 247.231C353.961 246.165 353.363 244.817 353.363 243.188C353.363 241.208 354.113 239.672 355.613 238.583C357.125 237.481 359.246 236.93 361.977 236.93H365.141V235.436C365.141 234.299 364.801 233.397 364.121 232.729C363.441 232.049 362.439 231.71 361.115 231.71C359.955 231.71 358.982 232.003 358.197 232.589C357.412 233.174 357.02 233.883 357.02 234.715H353.75C353.75 233.766 354.084 232.852 354.752 231.973C355.432 231.083 356.346 230.38 357.494 229.864C358.654 229.348 359.926 229.09 361.309 229.09C363.5 229.09 365.217 229.641 366.459 230.743C367.701 231.833 368.346 233.339 368.393 235.26V244.014C368.393 245.76 368.615 247.149 369.061 248.18V248.462H365.65ZM360.254 245.983C361.273 245.983 362.24 245.719 363.154 245.192C364.068 244.665 364.73 243.979 365.141 243.135V239.233H362.592C358.607 239.233 356.615 240.399 356.615 242.731C356.615 243.751 356.955 244.547 357.635 245.122C358.314 245.696 359.188 245.983 360.254 245.983ZM381.119 246.159C382.279 246.159 383.293 245.807 384.16 245.104C385.027 244.401 385.508 243.522 385.602 242.467H388.678C388.619 243.557 388.244 244.594 387.553 245.579C386.861 246.563 385.936 247.348 384.775 247.934C383.627 248.52 382.408 248.813 381.119 248.813C378.529 248.813 376.467 247.952 374.932 246.229C373.408 244.495 372.646 242.128 372.646 239.128V238.583C372.646 236.731 372.986 235.085 373.666 233.643C374.346 232.202 375.318 231.083 376.584 230.286C377.861 229.489 379.367 229.09 381.102 229.09C383.234 229.09 385.004 229.729 386.41 231.006C387.828 232.284 388.584 233.942 388.678 235.981H385.602C385.508 234.751 385.039 233.743 384.195 232.958C383.363 232.161 382.332 231.762 381.102 231.762C379.449 231.762 378.166 232.36 377.252 233.555C376.35 234.739 375.898 236.456 375.898 238.706V239.321C375.898 241.512 376.35 243.2 377.252 244.383C378.154 245.567 379.443 246.159 381.119 246.159ZM397.643 239.655L395.604 241.782V248.462H392.352V221.462H395.604V237.792L397.344 235.7L403.268 229.442H407.223L399.822 237.387L408.084 248.462H404.27L397.643 239.655ZM420.02 248.462V222.868H427.244C429.471 222.868 431.439 223.36 433.15 224.344C434.861 225.329 436.18 226.729 437.105 228.546C438.043 230.362 438.518 232.448 438.529 234.803V236.438C438.529 238.852 438.061 240.967 437.123 242.784C436.197 244.6 434.867 245.995 433.133 246.967C431.41 247.94 429.4 248.438 427.104 248.462H420.02ZM423.395 225.645V245.702H426.945C429.547 245.702 431.568 244.893 433.01 243.276C434.463 241.659 435.189 239.356 435.189 236.368V234.874C435.189 231.967 434.504 229.712 433.133 228.106C431.773 226.489 429.84 225.669 427.332 225.645H423.395ZM451.027 248.813C448.449 248.813 446.352 247.969 444.734 246.282C443.117 244.583 442.309 242.315 442.309 239.479V238.881C442.309 236.995 442.666 235.313 443.381 233.837C444.107 232.348 445.115 231.188 446.404 230.356C447.705 229.512 449.111 229.09 450.623 229.09C453.096 229.09 455.018 229.905 456.389 231.534C457.76 233.163 458.445 235.495 458.445 238.53V239.883H445.561C445.607 241.758 446.152 243.276 447.195 244.436C448.25 245.585 449.586 246.159 451.203 246.159C452.352 246.159 453.324 245.924 454.121 245.456C454.918 244.987 455.615 244.366 456.213 243.592L458.199 245.139C456.605 247.589 454.215 248.813 451.027 248.813ZM450.623 231.762C449.311 231.762 448.209 232.243 447.318 233.204C446.428 234.153 445.877 235.489 445.666 237.212H455.193V236.965C455.1 235.313 454.654 234.036 453.857 233.133C453.061 232.219 451.982 231.762 450.623 231.762ZM468.254 244.049L472.965 229.442H476.287L469.467 248.462H466.988L460.098 229.442H463.42L468.254 244.049ZM487.062 248.813C484.484 248.813 482.387 247.969 480.77 246.282C479.152 244.583 478.344 242.315 478.344 239.479V238.881C478.344 236.995 478.701 235.313 479.416 233.837C480.143 232.348 481.15 231.188 482.439 230.356C483.74 229.512 485.146 229.09 486.658 229.09C489.131 229.09 491.053 229.905 492.424 231.534C493.795 233.163 494.48 235.495 494.48 238.53V239.883H481.596C481.643 241.758 482.188 243.276 483.23 244.436C484.285 245.585 485.621 246.159 487.238 246.159C488.387 246.159 489.359 245.924 490.156 245.456C490.953 244.987 491.65 244.366 492.248 243.592L494.234 245.139C492.641 247.589 490.25 248.813 487.062 248.813ZM486.658 231.762C485.346 231.762 484.244 232.243 483.354 233.204C482.463 234.153 481.912 235.489 481.701 237.212H491.229V236.965C491.135 235.313 490.689 234.036 489.893 233.133C489.096 232.219 488.018 231.762 486.658 231.762ZM501.793 248.462H498.541V221.462H501.793V248.462ZM506.152 238.776C506.152 236.913 506.516 235.237 507.242 233.749C507.98 232.26 509 231.112 510.301 230.303C511.613 229.495 513.107 229.09 514.783 229.09C517.373 229.09 519.465 229.987 521.059 231.78C522.664 233.573 523.467 235.958 523.467 238.934V239.163C523.467 241.014 523.109 242.678 522.395 244.155C521.691 245.62 520.678 246.762 519.354 247.583C518.041 248.403 516.529 248.813 514.818 248.813C512.24 248.813 510.148 247.917 508.543 246.124C506.949 244.331 506.152 241.958 506.152 239.005V238.776ZM509.422 239.163C509.422 241.272 509.908 242.965 510.881 244.243C511.865 245.52 513.178 246.159 514.818 246.159C516.471 246.159 517.783 245.514 518.756 244.225C519.729 242.924 520.215 241.108 520.215 238.776C520.215 236.69 519.717 235.003 518.721 233.714C517.736 232.413 516.424 231.762 514.783 231.762C513.178 231.762 511.883 232.401 510.898 233.678C509.914 234.956 509.422 236.784 509.422 239.163ZM543.611 239.163C543.611 242.057 542.949 244.389 541.625 246.159C540.301 247.928 538.508 248.813 536.246 248.813C533.938 248.813 532.121 248.081 530.797 246.616V255.774H527.545V229.442H530.516L530.674 231.551C531.998 229.911 533.838 229.09 536.193 229.09C538.479 229.09 540.283 229.952 541.607 231.674C542.943 233.397 543.611 235.794 543.611 238.864V239.163ZM540.359 238.794C540.359 236.649 539.902 234.956 538.988 233.714C538.074 232.471 536.82 231.85 535.227 231.85C533.258 231.85 531.781 232.723 530.797 234.469V243.557C531.77 245.292 533.258 246.159 535.262 246.159C536.82 246.159 538.057 245.544 538.971 244.313C539.896 243.071 540.359 241.231 540.359 238.794ZM555.652 248.813C553.074 248.813 550.977 247.969 549.359 246.282C547.742 244.583 546.934 242.315 546.934 239.479V238.881C546.934 236.995 547.291 235.313 548.006 233.837C548.732 232.348 549.74 231.188 551.029 230.356C552.33 229.512 553.736 229.09 555.248 229.09C557.721 229.09 559.643 229.905 561.014 231.534C562.385 233.163 563.07 235.495 563.07 238.53V239.883H550.186C550.232 241.758 550.777 243.276 551.82 244.436C552.875 245.585 554.211 246.159 555.828 246.159C556.977 246.159 557.949 245.924 558.746 245.456C559.543 244.987 560.24 244.366 560.838 243.592L562.824 245.139C561.23 247.589 558.84 248.813 555.652 248.813ZM555.248 231.762C553.936 231.762 552.834 232.243 551.943 233.204C551.053 234.153 550.502 235.489 550.291 237.212H559.818V236.965C559.725 235.313 559.279 234.036 558.482 233.133C557.686 232.219 556.607 231.762 555.248 231.762ZM576.043 232.36C575.551 232.278 575.018 232.237 574.443 232.237C572.311 232.237 570.863 233.145 570.102 234.962V248.462H566.85V229.442H570.014L570.066 231.639C571.133 229.94 572.645 229.09 574.602 229.09C575.234 229.09 575.715 229.172 576.043 229.337V232.36Z" fill="#30475E"/>
<g clip-path="url(#clip0)" filter="url(#filter1_d)">
<path d="M666.5 419C712.616 419 750 382.511 750 337.5C750 292.489 712.616 256 666.5 256C620.384 256 583 292.489 583 337.5C583 382.511 620.384 419 666.5 419Z" fill="#88C5CC"/>
<path d="M597.352 291.808V373.561C597.352 375.447 598.918 376.976 600.852 376.976H640.821C642.752 376.976 644.322 375.448 644.322 373.561V270.875C644.322 268.989 642.755 267.46 640.821 267.46H623.805C613.266 273.595 604.223 281.921 597.352 291.808Z" fill="#1E2C33"/>
<path d="M599.961 288.275V373.156H641.711V270.008H619.687C612.134 275.009 605.471 281.191 599.961 288.275Z" fill="#F5F5F5"/>
<path d="M607.139 280.195H637.797V273.828H614.406C611.861 275.816 609.43 277.936 607.139 280.195Z" fill="#1E2C33"/>
<path d="M636.492 291.656H605.18V295.477H636.492V291.656Z" fill="#1E2C33"/>
<path d="M636.492 300.57H605.18V303.117H636.492V300.57Z" fill="#1E2C33"/>
<path d="M636.492 308.211H605.18V310.758H636.492V308.211Z" fill="#1E2C33"/>
<path d="M636.492 315.852H605.18V318.398H636.492V315.852Z" fill="#1E2C33"/>
<path d="M636.492 323.492H605.18V326.039H636.492V323.492Z" fill="#1E2C33"/>
<path d="M636.492 332.406H605.18V334.953H636.492V332.406Z" fill="#1E2C33"/>
<path d="M636.492 287.836H605.18V291.656H636.492V287.836Z" fill="#1E2C33"/>
<path d="M620.836 351.508C622.277 351.508 623.445 350.368 623.445 348.961C623.445 347.554 622.277 346.414 620.836 346.414C619.395 346.414 618.227 347.554 618.227 348.961C618.227 350.368 619.395 351.508 620.836 351.508Z" fill="#1E2C33"/>
<path d="M633.883 278.922H632.578C631.857 278.922 631.273 278.353 631.273 277.648C631.273 276.944 631.857 276.375 632.578 276.375H633.883C634.604 276.375 635.188 276.944 635.188 277.648C635.188 278.353 634.604 278.922 633.883 278.922Z" fill="#F5F5F5"/>
<path d="M593.449 376.977C599.466 387.563 607.83 396.692 617.852 403.719H715.148C725.171 396.692 733.534 387.561 739.551 376.977H593.449Z" fill="#CC803D"/>
<path d="M616.581 393.167C619.187 392.64 620.908 390.774 623.059 389.377C625.922 387.517 629.242 387.567 631.776 385.055C633.897 382.955 634.313 379.89 633.819 376.974H631.399C632.034 380.391 630.78 383.681 626.843 385.278C625.184 385.951 623.495 386.397 621.874 387.176C619.705 388.219 618.46 390.201 615.958 390.708C614.486 391.01 615.039 393.48 616.581 393.167Z" fill="#99602E"/>
<path d="M618.685 381.331C616.831 380.909 615.492 378.644 614.339 376.977H611.731C611.711 377.285 611.791 377.603 612.015 377.877C614.186 380.527 616.391 384.784 620.562 383.793C623.436 383.112 625.368 379.847 625.32 376.975H623.064C623.277 379.1 620.781 381.806 618.685 381.331Z" fill="#99602E"/>
<path d="M640.329 393.058C642.636 390.19 644.59 387.318 645.778 383.842C646.292 382.342 644.045 381.611 643.515 383.166C641.468 389.157 636.179 393.131 633.605 398.838C632.894 400.414 632.68 402.063 632.748 403.721H635.512C635.642 400.012 637.282 396.851 640.329 393.058Z" fill="#99602E"/>
<path d="M661.027 395.183C659.263 389.627 660.146 383.32 660.864 377.634C660.894 377.392 660.848 377.178 660.775 376.977H658.599C657.821 383.115 656.851 389.833 658.765 395.859C659.26 397.429 661.506 396.689 661.027 395.183Z" fill="#99602E"/>
<path d="M619.462 403.719C618.709 400.905 617.625 398.244 615.304 396.133C614.086 395.024 612.529 396.919 613.645 397.934C615.222 399.37 616.163 401.117 616.816 403.001C617.157 403.246 617.508 403.478 617.851 403.719H619.462Z" fill="#99602E"/>
<path d="M606.199 376.977C605.512 381.086 607.544 384.738 610.057 388.064C611.046 389.372 612.607 387.44 611.716 386.264C609.616 383.48 607.865 380.453 608.627 376.977H606.199Z" fill="#99602E"/>
<path d="M664.658 390.11C664.744 388.266 664.426 386.157 663.682 384.454C663.422 383.86 662.612 383.656 662.076 384C661.464 384.388 661.39 385.136 661.654 385.74C662.215 387.024 662.376 388.731 662.309 390.113C662.232 391.733 664.581 391.721 664.658 390.11Z" fill="#99602E"/>
<path d="M602.551 376.976H599.836C598.703 379.512 598.162 381.882 598.181 384.333C599.215 385.766 600.288 387.166 601.413 388.526C600.419 385.084 600.502 381.344 602.551 376.976Z" fill="#99602E"/>
<path d="M651.692 378.887C651.542 377.291 649.191 377.268 649.342 378.887C650.151 387.5 644.487 391.596 641.965 399.043C641.545 400.28 641.361 402.029 641.548 403.719H643.519C643.08 399.826 647.669 393.76 649.042 391.592C651.535 387.654 652.118 383.424 651.692 378.887Z" fill="#99602E"/>
<path d="M660.372 403.719C658.68 399.716 656.792 395.601 656.348 391.35C656.266 390.544 656.213 389.719 656.17 388.885C656.202 388.629 656.24 388.378 656.258 388.117C656.278 387.843 656.21 387.634 656.112 387.453C656.022 383.978 656.19 380.372 656.244 376.974H653.902C653.858 380.654 653.785 384.444 653.902 388.179C653.453 394 648.978 398.82 646.122 403.716H648.917C650.75 400.731 652.897 397.799 654.404 394.634C654.941 397.72 656.374 400.763 657.727 403.716L660.372 403.719Z" fill="#99602E"/>
<path d="M636.925 387.135C640.591 384.802 641.922 380.976 642.382 376.977H639.913C638.337 384.528 630.822 387.321 625.907 393.102C622.968 396.559 624.146 400.056 625.302 403.719H627.691C626.793 401.176 625.749 398.509 626.848 395.998C628.527 392.16 633.553 389.281 636.925 387.135Z" fill="#99602E"/>
<path d="M653.336 402.052C653.621 402.602 653.769 403.156 653.835 403.719H656.172C656.095 402.722 655.873 401.746 655.365 400.77C654.596 399.291 652.631 400.698 653.336 402.052Z" fill="#99602E"/>
<path d="M682.191 393.456C683.454 390.296 687.576 388.448 690.318 386.638C692.412 385.257 694.341 383.773 696.12 382.023C697.625 380.542 698.616 378.821 699.278 376.975H696.443C694.934 379.916 692.453 382.191 689.131 384.439C686.927 385.932 684.165 387.32 682.186 389.272C681.964 385.058 681.534 381.18 679.66 377.128C679.63 377.062 679.583 377.03 679.551 376.975H677.84C677.532 377.349 677.384 377.882 677.632 378.414C679.765 383.029 679.777 387.817 679.997 392.814C680.052 393.887 681.68 394.737 682.191 393.456Z" fill="#99602E"/>
<path d="M685.554 397.94C687.105 394.223 691.066 391.91 694.232 389.591C698.714 386.317 702.68 382.35 703.854 376.977H701.483C699.25 386.293 687.284 388.315 683.525 396.655C682.985 397.853 681.356 401.225 681.243 403.719H683.581C683.891 402.496 685.316 398.508 685.554 397.94Z" fill="#99602E"/>
<path d="M686.025 382.95C686.575 381.784 687.511 380.856 688.064 379.686C688.467 378.835 688.612 377.899 688.788 376.974H686.395C686.271 377.594 686.125 378.212 685.854 378.787C685.368 379.819 684.489 380.624 683.997 381.664C683.349 383.039 685.315 384.454 686.025 382.95Z" fill="#99602E"/>
<path d="M698.243 393.768C700.628 391.151 704.018 388.75 705.595 385.579C706.275 384.215 704.309 382.804 703.566 384.293C702.422 386.594 700.104 388.165 698.353 390.012C696.61 391.852 694.936 393.747 693.16 395.556C690.736 398.028 689.1 400.517 688.403 403.716H690.798C691.915 399.627 695.396 396.886 698.243 393.768Z" fill="#99602E"/>
<path d="M738.311 379.08C738.735 378.386 739.15 377.685 739.551 376.977H737.838C737.989 377.676 738.15 378.38 738.311 379.08Z" fill="#99602E"/>
<path d="M717.976 395.173C719.607 393.275 722.24 392.068 724.419 390.89C726.822 389.59 730.04 388.781 732.573 387.307C733.731 385.847 734.849 384.356 735.905 382.82C735.504 382.045 734.415 381.669 733.903 382.703C732.524 385.479 728.277 386.13 725.608 387.433C723.088 388.659 720.6 390.056 718.312 391.652C713.453 395.044 714.105 398.872 714.296 403.721H715.15C715.603 403.404 716.062 403.101 716.507 402.776C716.242 400.087 715.978 397.499 717.976 395.173Z" fill="#99602E"/>
<path d="M673.078 403.719H675.53C677.029 398.737 678.707 395.525 677.611 389.959C677.02 386.949 676.033 383.905 675.164 380.96C674.747 379.544 674.008 378.273 673.339 376.977H670.518C671.647 380.296 673.424 383.521 674.34 386.946C675.368 390.786 676.597 394.334 675.03 398.316C674.316 400.128 673.63 401.86 673.078 403.719Z" fill="#99602E"/>
<path d="M671.591 395.766C673.164 393.39 672.653 390 672.115 387.383C671.781 385.762 669.535 386.526 669.853 388.059C670.259 390.033 670.752 392.686 669.562 394.48C668.712 395.765 670.676 397.145 671.591 395.766Z" fill="#99602E"/>
<path d="M716.823 387.642C716.796 384.244 717.07 380.855 717.171 377.454C717.177 377.272 717.144 377.115 717.094 376.977H714.926C714.87 377.115 714.827 377.272 714.822 377.454C714.694 381.836 714.258 386.2 714.576 390.587C714.642 391.47 715.845 392.487 716.582 391.487C719.932 386.964 725.482 387.014 730 384.306C732.88 382.582 733.84 379.912 734.275 376.977H731.941C731.707 378.456 731.262 379.81 730.115 381.081C728.594 382.758 726.132 383.479 724.005 384.033C721.374 384.719 718.845 385.882 716.823 387.642Z" fill="#99602E"/>
<path d="M721.577 381.758C722.406 380.363 723.048 378.892 723.407 377.315C723.434 377.194 723.422 377.087 723.42 376.977H721.052C720.727 378.221 720.213 379.354 719.551 380.472C718.764 381.794 720.728 383.187 721.577 381.758Z" fill="#99602E"/>
<path d="M710.195 403.719C713.195 395.248 713.43 385.546 710.961 376.977H708.082C708.054 377.096 708.04 377.225 708.054 377.375C708.626 383.312 707.675 387.2 704.589 392.318C702.4 395.947 699.173 399.86 695.948 402.951C695.542 402.872 695.114 403.023 694.842 403.556L694.76 403.721H698.631C702.027 400.252 705.082 396.155 707.504 392.137C708.866 389.878 709.679 387.876 710.14 385.846C710.593 391.906 709.796 398.147 707.716 403.721L710.195 403.719Z" fill="#99602E"/>
<path d="M666.997 376.977H664.647C665.181 384.536 666.506 392.006 664.792 399.441C664.72 399.301 664.655 399.161 664.578 399.018C663.794 397.551 661.832 398.952 662.549 400.305C663.143 401.274 663.566 402.312 663.819 403.421C663.848 403.538 663.898 403.627 663.947 403.719H665.923C665.983 403.627 666.042 403.533 666.082 403.421C669.288 394.606 667.625 385.931 666.997 376.977Z" fill="#99602E"/>
<path d="M603.525 390.984C618.833 408.141 641.36 419 666.5 419C691.641 419 714.165 408.141 729.475 390.984H603.525Z" fill="#263740"/>
<path d="M750 337.5C750 319.379 743.933 302.643 733.682 289.109H656.062C654.503 289.109 653.453 290.179 653.453 291.772V347.688H749.327C749.756 344.347 750 340.952 750 337.5Z" fill="#1E2C33"/>
<path d="M749.327 347.688H653.453V357.875C653.453 359.397 654.503 360.422 656.062 360.422H746.629C747.863 356.304 748.77 352.049 749.327 347.688Z" fill="#F5F5F5"/>
<path d="M658.672 342.594H749.821C749.928 340.908 750 339.213 750 337.5C750 322.126 745.632 307.749 738.05 295.477H658.672V342.594Z" fill="#586874"/>
<path d="M723.906 360.422H695.203V371.883H723.906V360.422Z" fill="#E6E6E6"/>
<path d="M733.039 374.43C733.039 373.029 731.865 371.883 730.43 371.883H688.68C687.245 371.883 686.07 373.029 686.07 374.43C686.07 375.83 687.245 376.977 688.68 376.977H730.43C731.865 376.977 733.039 375.83 733.039 374.43Z" fill="#F5F5F5"/>
<path d="M709.555 356.602C710.996 356.602 712.164 355.461 712.164 354.055C712.164 352.648 710.996 351.508 709.555 351.508C708.114 351.508 706.945 352.648 706.945 354.055C706.945 355.461 708.114 356.602 709.555 356.602Z" fill="#1E2C33"/>
<g clip-path="url(#clip1)">
<path d="M694.813 447.601C694.813 451.123 694.179 451.936 693.429 451.936H665.693C664.944 451.936 664.31 451.394 664.31 447.601V375.807C664.31 372.285 664.944 369.305 665.693 369.305H693.372C694.121 369.305 694.756 372.285 694.756 375.807V447.601H694.813Z" fill="#E7EEF2"/>
<path d="M694.813 449.497C694.813 453.019 694.179 453.832 693.429 453.832H665.693C664.944 453.832 664.31 453.29 664.31 449.497V377.703C664.31 374.181 664.944 371.201 665.693 371.201H693.372C694.121 371.201 694.756 374.181 694.756 377.703V449.497H694.813Z" fill="#00233F"/>
<path d="M693.545 445.705V382.309C693.545 379.058 693.545 376.349 692.853 376.349H666.212C665.52 376.078 665.52 378.787 665.52 382.309V445.976H693.545V445.705V445.705Z" fill="#1FEADB"/>
<path d="M693.545 445.705V382.309C693.545 379.058 693.545 376.349 692.853 376.349H666.212C665.52 376.078 665.52 378.787 665.52 382.309" fill="#15CCCC"/>
<path d="M692.853 376.078H666.212C665.52 376.078 665.52 378.787 665.52 382.309V387.998C665.52 384.747 665.52 382.038 666.212 382.038H692.795C693.487 382.038 693.487 384.747 693.487 387.998V382.309C693.545 378.787 693.545 376.078 692.853 376.078Z" fill="#1AB5B5"/>
<path d="M679.533 374.994C679.66 374.994 679.763 374.509 679.763 373.91C679.763 373.312 679.66 372.827 679.533 372.827C679.405 372.827 679.302 373.312 679.302 373.91C679.302 374.509 679.405 374.994 679.533 374.994Z" fill="#27D68A"/>
<path d="M679.533 372.827C679.648 372.827 679.763 373.369 679.763 373.91C679.763 374.452 679.648 374.994 679.533 374.994" fill="#15AF83"/>
<path d="M679.416 373.904C679.449 373.904 679.475 373.783 679.475 373.633C679.475 373.484 679.449 373.362 679.416 373.362C679.384 373.362 679.358 373.484 679.358 373.633C679.358 373.783 679.384 373.904 679.416 373.904Z" fill="#CFFFEF"/>
</g>
</g>
<path d="M705 131C729.301 131 749 111.972 749 88.5C749 65.0279 729.301 46 705 46C680.699 46 661 65.0279 661 88.5C661 111.972 680.699 131 705 131Z" fill="#324A5E"/>
<path d="M725.998 116.356H684.002C683.462 116.356 683.044 115.936 683.044 115.431V61.5693C683.044 61.0475 683.479 60.6436 684.002 60.6436H726.015C726.556 60.6436 726.974 61.0643 726.974 61.5693V115.431C726.974 115.936 726.538 116.356 725.998 116.356Z" fill="white"/>
<path d="M722.443 68.6049H687.557V106.291H722.443V68.6049Z" fill="#54C0EB"/>
<path d="M705.871 114.185C707.565 114.185 708.938 112.859 708.938 111.223C708.938 109.587 707.565 108.26 705.871 108.26C704.177 108.26 702.804 109.587 702.804 111.223C702.804 112.859 704.177 114.185 705.871 114.185Z" fill="#CED5E0"/>
<path d="M711.587 65.7099H703.292C702.648 65.7099 702.125 65.205 702.125 64.5822C702.125 63.9594 702.648 63.4545 703.292 63.4545H711.587C712.232 63.4545 712.754 63.9594 712.754 64.5822C712.754 65.205 712.232 65.7099 711.587 65.7099Z" fill="#CED5E0"/>
<path d="M699.302 65.7099H698.413C697.768 65.7099 697.246 65.205 697.246 64.5822C697.246 63.9594 697.768 63.4545 698.413 63.4545H699.302C699.947 63.4545 700.469 63.9594 700.469 64.5822C700.469 65.205 699.947 65.7099 699.302 65.7099Z" fill="#CED5E0"/>
<path d="M708.259 95.0812C708.259 94.9803 708.276 94.8624 708.259 94.7614C708.241 94.2902 708.468 93.8862 708.834 93.6506C707.701 91.9674 706.76 89.3753 706.76 89.3753H703.135C703.135 89.3753 701.706 93.3812 700.278 94.6605L704.878 96.0743V96.1416L704.983 96.108L705.087 96.1416V96.0743L708.259 95.0812Z" fill="#F9B54C"/>
<path d="M708.694 106.308L710.698 103.11L709.478 94.4584L704.948 94.8287L700.748 94.4248L700.522 94.4584C700.522 94.4584 698.552 98.3634 698.413 98.7337C698.274 99.0703 699.668 104.911 699.912 106.308H708.694Z" fill="#E6E9EE"/>
<path d="M705.697 97.2356H704.198L703.205 94.8287H706.673L705.697 97.2356Z" fill="#F1543F"/>
<path d="M705.697 97.2357H704.198L703.205 103.396L704.948 105.618L706.673 103.396L705.697 97.2357Z" fill="#FF7058"/>
<path d="M708.328 92.792C708.328 92.792 710.89 94.8792 707.074 97.202L704.93 94.8792L708.328 92.792Z" fill="white"/>
<path d="M701.567 92.792C701.567 92.792 699.006 94.8792 702.822 97.202L704.965 94.8792L701.567 92.792Z" fill="white"/>
<path d="M695.939 106.308C695.939 106.274 695.956 106.241 695.956 106.224C696.235 105.079 696.461 104.372 696.461 104.372L693.813 98.5317C693.813 98.5149 693.795 98.4981 693.795 98.4812L692.924 96.5793C692.924 96.5624 692.907 96.5624 692.907 96.5624C691.443 99.7268 690.589 103.059 690.153 106.308H695.939V106.308Z" fill="#324A5E"/>
<path d="M693.795 98.4812C693.795 98.4981 693.813 98.5149 693.813 98.5317C694.475 100.164 695.346 102.79 695.956 106.224C695.956 106.257 695.973 106.291 695.973 106.308H703.24L702.717 105.635L700.034 97.7911L700.539 94.4585L701.149 93.2802C701.044 93.3812 700.086 94.307 698.309 95.1654C696.967 95.8218 695.154 96.4109 692.924 96.5624C692.924 96.5624 692.924 96.5624 692.941 96.5792C692.994 96.6971 693.325 97.3535 693.795 98.4812Z" fill="#2B3B4E"/>
<path d="M702.491 106.308H704.024C700.295 98.599 701.131 93.2802 701.131 93.2802L698.187 95.2327L700.016 95.5693L698.187 96.3099C699.511 101.056 701.097 104.221 702.491 106.308Z" fill="#324A5E"/>
<path d="M714.061 106.308H719.847C719.394 103.059 718.557 99.7268 717.093 96.5624C717.093 96.5624 717.093 96.5624 717.076 96.5793L716.222 98.4644L716.205 98.4812L713.539 104.372C713.539 104.372 713.748 105.062 714.044 106.224C714.061 106.241 714.061 106.274 714.061 106.308Z" fill="#2B3B4E"/>
<path d="M707.3 105.618L706.777 106.291H714.044C714.044 106.257 714.044 106.241 714.061 106.207C714.671 102.74 715.577 100.114 716.222 98.4643C716.222 98.4474 716.222 98.4474 716.24 98.4474C716.693 97.3197 717.024 96.6801 717.093 96.5623C717.093 96.5454 717.111 96.5454 717.111 96.5454C714.88 96.394 713.068 95.8049 711.726 95.1484C709.966 94.3068 708.99 93.3643 708.903 93.2633L709.513 94.4415L710.019 97.7742L710.001 97.8415L707.3 105.618Z" fill="#324A5E"/>
<path d="M705.976 106.308H707.509C708.921 104.221 710.507 101.073 711.814 96.3098L709.984 95.5692L711.814 95.2326L708.869 93.2633C708.869 93.2633 709.705 98.5821 705.976 106.308Z" fill="#2B3B4E"/>
<path d="M710.611 85.5881C710.541 86.4297 710.228 87.1198 709.897 87.1198C709.566 87.1198 709.374 86.4297 709.461 85.5881C709.531 84.7465 709.844 84.0564 710.175 84.0564C710.507 84.0564 710.681 84.7465 710.611 85.5881Z" fill="#F9B54C"/>
<path d="M699.389 85.5881C699.459 86.4297 699.772 87.1198 700.103 87.1198C700.417 87.1198 700.626 86.4297 700.539 85.5881C700.469 84.7465 700.156 84.0564 699.825 84.0564C699.511 84.0564 699.319 84.7465 699.389 85.5881Z" fill="#F9B54C"/>
<path d="M708.921 80.7743C708.625 80.1515 707.962 79.7476 707.23 79.7476H705.035H702.839C702.107 79.7476 701.445 80.1515 701.149 80.7743C700.434 82.2723 700.295 84.8812 700.295 86.6486C700.295 87.8268 700.766 88.9545 701.619 89.8298L702.299 90.5367C702.926 91.1931 703.745 91.6644 704.651 91.9169L705.035 92.0179L705.418 91.9169C706.324 91.6644 707.143 91.1931 707.771 90.5367L708.45 89.8298C709.304 88.9545 709.775 87.8268 709.775 86.6486C709.775 84.8644 709.635 82.2723 708.921 80.7743Z" fill="#FFD05B"/>
<path d="M710.332 79.2931C710.263 79.0406 710.141 78.8049 710.071 78.5525C710.019 78.3841 709.984 78.2158 709.897 78.0643C709.705 77.7277 709.304 77.5594 708.921 77.5931C708.537 77.6267 708.189 77.8455 707.928 78.1148C707.997 77.7614 707.997 77.3742 707.823 77.0713C707.614 76.7178 707.196 76.5158 706.795 76.4485C706.394 76.3812 705.958 76.398 705.558 76.3643C705.105 76.3307 704.634 76.2129 704.181 76.2465C703.798 76.2802 703.467 76.4822 703.083 76.5663C699.18 77.4247 699.493 81.902 699.546 83.097C699.563 83.4168 699.581 83.7366 699.685 84.0396C699.825 84.4267 700.086 84.7633 700.365 85.0663C700.434 84.8475 700.434 84.6119 700.487 84.3931C700.556 84.0732 700.609 83.7366 700.696 83.4C700.783 83.0802 701.166 81.4307 701.323 81.094C701.532 80.6396 701.916 80.2356 702.404 80.1178C703.345 79.8822 704.286 80.6901 705.227 80.5386C705.401 80.5049 705.575 80.4544 705.749 80.3871C705.941 80.3198 706.15 80.2525 706.342 80.202C706.795 80.0841 707.265 79.9832 707.718 80.101C708.206 80.2356 708.607 80.6228 708.851 81.0604C709.095 81.498 709.217 82.003 709.339 82.4911C709.409 82.7772 709.461 83.0802 709.444 83.3832C709.444 83.4 709.444 83.4336 709.444 83.4505C709.461 83.6861 709.444 83.9386 709.478 84.1742C709.513 84.3594 709.566 84.5445 709.618 84.7297C709.635 84.8138 709.653 84.898 709.67 84.9822C710.001 84.3931 710.245 83.7534 710.367 83.097C710.472 82.5584 710.489 82.0198 710.524 81.4643C710.524 80.7406 710.559 80 710.332 79.2931Z" fill="#11110F"/>
<path d="M593.25 84H625.75C626.822 84 627.7 83.244 627.7 82.32V29.68C627.7 28.756 626.822 28 625.75 28L593.25 28C592.177 28 591.3 28.756 591.3 29.68V82.32C591.3 83.244 592.177 84 593.25 84ZM613.4 80.64H605.6C605.242 80.64 604.95 80.388 604.95 80.08C604.95 79.772 605.242 79.52 605.6 79.52H613.4C613.757 79.52 614.05 79.772 614.05 80.08C614.05 80.388 613.757 80.64 613.4 80.64ZM615.664 29.6975C616.023 29.6975 616.315 29.9486 616.315 30.2584C616.315 30.5681 616.023 30.8192 615.664 30.8192C615.304 30.8192 615.013 30.5681 615.013 30.2584C615.013 29.9486 615.304 29.6975 615.664 29.6975ZM613.426 29.6975C613.786 29.6975 614.077 29.9486 614.077 30.2584C614.077 30.5681 613.786 30.8192 613.426 30.8192C613.067 30.8192 612.775 30.5681 612.775 30.2584C612.775 29.9486 613.067 29.6975 613.426 29.6975ZM603.335 29.6975H609.104C609.461 29.6975 609.754 29.9495 609.754 30.2575C609.754 30.5655 609.461 30.8175 609.104 30.8175H603.335C602.978 30.8175 602.685 30.5655 602.685 30.2575C602.685 29.9495 602.978 29.6975 603.335 29.6975ZM593.25 32.48H625.75V77.28H593.25V32.48Z" fill="#2D2D2D"/>
<path d="M613.4 79.52H605.6C605.242 79.52 604.95 79.772 604.95 80.08C604.95 80.388 605.242 80.64 605.6 80.64H613.4C613.757 80.64 614.05 80.388 614.05 80.08C614.05 79.772 613.757 79.52 613.4 79.52Z" fill="#C9C9C9"/>
<path d="M603.335 30.8175H609.104C609.461 30.8175 609.754 30.5655 609.754 30.2575C609.754 29.9495 609.461 29.6975 609.104 29.6975H603.335C602.978 29.6975 602.685 29.9495 602.685 30.2575C602.685 30.5655 602.978 30.8175 603.335 30.8175Z" fill="#C9C9C9"/>
<path d="M613.426 30.8192C613.786 30.8192 614.077 30.5681 614.077 30.2584C614.077 29.9486 613.786 29.6975 613.426 29.6975C613.067 29.6975 612.775 29.9486 612.775 30.2584C612.775 30.5681 613.067 30.8192 613.426 30.8192Z" fill="#C9C9C9"/>
<path d="M615.665 30.8192C616.024 30.8192 616.316 30.5681 616.316 30.2584C616.316 29.9486 616.024 29.6975 615.665 29.6975C615.305 29.6975 615.014 29.9486 615.014 30.2584C615.014 30.5681 615.305 30.8192 615.665 30.8192Z" fill="#C9C9C9"/>
<path d="M625.75 32.48H593.25V77.28H625.75V32.48ZM604.64 73.0328H596.5V67.1388H604.64V73.0328ZM604.64 65.1779H596.5V59.2839H604.64V65.1779ZM622.5 71.7658H607.209V70.6458H622.5V71.7658ZM622.5 69.5258H607.209V68.4058H622.5V69.5258ZM622.5 63.9109H607.209V62.7909H622.5V63.9109ZM622.5 61.6709H607.209V60.5509H622.5V61.6709ZM622.5 55.5538H596.5V36.7273H622.5V55.5538Z" fill="#EFEFEF"/>
<path d="M596.5 55.5538H622.5V36.7273H596.5V55.5538ZM617.298 49.4996C617.298 52.5901 617.298 53.3068 617.298 53.3068C617.298 53.3068 609.656 53.3068 609.683 53.3068L613.4 46.3654C613.399 46.3645 617.298 46.4091 617.298 49.4996ZM609.5 51.4701L606.823 46.3645H609.5H612.177L609.5 51.4701ZM609.5 38.9743C611.625 38.9743 613.347 40.4583 613.347 42.2888C613.347 44.1193 611.625 45.6033 609.5 45.6033C607.375 45.6033 605.653 44.1193 605.653 42.2888C605.653 40.4583 607.375 38.9743 609.5 38.9743ZM601.702 49.4996C601.702 46.4091 605.601 46.3645 605.601 46.3645L609.318 53.3059C609.345 53.3059 601.703 53.3059 601.703 53.3059C601.703 53.3059 601.702 52.5893 601.702 49.4996Z" fill="#DB2B42"/>
<path d="M622.504 68.4075H607.209V69.5275H622.504V68.4075Z" fill="#C9C9C9"/>
<path d="M622.504 70.6458H607.209V71.7658H622.504V70.6458Z" fill="#C9C9C9"/>
<path d="M609.5 45.6033C611.625 45.6033 613.347 44.1194 613.347 42.2888C613.347 40.4583 611.625 38.9743 609.5 38.9743C607.375 38.9743 605.653 40.4583 605.653 42.2888C605.653 44.1194 607.375 45.6033 609.5 45.6033Z" fill="white"/>
<path d="M605.601 46.3645C605.601 46.3645 601.702 46.4091 601.702 49.4996C601.702 52.5901 601.702 53.3068 601.702 53.3068C601.702 53.3068 609.344 53.3068 609.317 53.3068L605.601 46.3645Z" fill="white"/>
<path d="M617.298 53.3059C617.298 53.3059 617.298 52.5893 617.298 49.4988C617.298 46.4083 613.399 46.3637 613.399 46.3637L609.682 53.305C609.656 53.3059 617.298 53.3059 617.298 53.3059Z" fill="white"/>
<path d="M609.5 46.3645H606.823L609.5 51.4701L612.177 46.3645H609.5Z" fill="white"/>
<path d="M596.5 65.1779H604.64V59.2839H596.5V65.1779ZM603.011 63.2827C603.011 64.2504 603.011 64.4744 603.011 64.4744C603.011 64.4744 600.618 64.4744 600.626 64.4744L601.79 62.3009C601.79 62.3009 603.011 62.3149 603.011 63.2827ZM600.57 63.8995L599.732 62.3009H600.57H601.407L600.57 63.8995ZM600.57 59.9874C601.235 59.9874 601.774 60.452 601.774 61.0252C601.774 61.5983 601.235 62.0629 600.57 62.0629C599.904 62.0629 599.365 61.5983 599.365 61.0252C599.365 60.452 599.904 59.9874 600.57 59.9874ZM598.129 63.2827C598.129 62.3149 599.35 62.3009 599.35 62.3009L600.514 64.4744C600.522 64.4744 598.129 64.4744 598.129 64.4744C598.129 64.4744 598.129 64.2495 598.129 63.2827Z" fill="#8AD5DD"/>
<path d="M600.573 62.0628C601.238 62.0628 601.777 61.5982 601.777 61.0251C601.777 60.452 601.238 59.9873 600.573 59.9873C599.907 59.9873 599.368 60.452 599.368 61.0251C599.368 61.5982 599.907 62.0628 600.573 62.0628Z" fill="white"/>
<path d="M599.349 62.3008C599.349 62.3008 598.128 62.3148 598.128 63.2826C598.128 64.2503 598.128 64.4743 598.128 64.4743C598.128 64.4743 600.521 64.4743 600.513 64.4743L599.349 62.3008Z" fill="white"/>
<path d="M603.011 64.4743C603.011 64.4743 603.011 64.2503 603.011 63.2826C603.011 62.3148 601.79 62.3008 601.79 62.3008L600.626 64.4743C600.618 64.4743 603.011 64.4743 603.011 64.4743Z" fill="white"/>
<path d="M600.57 62.3008H599.732L600.57 63.8994L601.408 62.3008H600.57Z" fill="white"/>
<path d="M596.5 73.0327H604.64V67.1387H596.5V73.0327ZM603.011 71.1375C603.011 72.1052 603.011 72.3292 603.011 72.3292C603.011 72.3292 600.618 72.3292 600.626 72.3292L601.79 70.1557C601.79 70.1557 603.011 70.1697 603.011 71.1375ZM600.57 71.7543L599.732 70.1557H600.57H601.407L600.57 71.7543ZM600.57 67.8422C601.235 67.8422 601.774 68.3068 601.774 68.88C601.774 69.4531 601.235 69.9177 600.57 69.9177C599.904 69.9177 599.365 69.4531 599.365 68.88C599.365 68.3068 599.904 67.8422 600.57 67.8422ZM598.129 71.1375C598.129 70.1697 599.35 70.1557 599.35 70.1557L600.514 72.3292C600.522 72.3292 598.129 72.3292 598.129 72.3292C598.129 72.3292 598.129 72.1043 598.129 71.1375Z" fill="#8AD5DD"/>
<path d="M600.573 69.9178C601.238 69.9178 601.777 69.4532 601.777 68.88C601.777 68.3069 601.238 67.8423 600.573 67.8423C599.907 67.8423 599.368 68.3069 599.368 68.88C599.368 69.4532 599.907 69.9178 600.573 69.9178Z" fill="white"/>
<path d="M599.349 70.1558C599.349 70.1558 598.128 70.1698 598.128 71.1375C598.128 72.1053 598.128 72.3293 598.128 72.3293C598.128 72.3293 600.521 72.3293 600.513 72.3293L599.349 70.1558Z" fill="white"/>
<path d="M603.011 72.3293C603.011 72.3293 603.011 72.1053 603.011 71.1375C603.011 70.1698 601.79 70.1558 601.79 70.1558L600.626 72.3293C600.618 72.3293 603.011 72.3293 603.011 72.3293Z" fill="white"/>
<path d="M600.57 70.1558H599.732L600.57 71.7544L601.408 70.1558H600.57Z" fill="white"/>
<path d="M622.504 60.55H607.209V61.67H622.504V60.55Z" fill="#C9C9C9"/>
<path d="M622.504 62.7909H607.209V63.9109H622.504V62.7909Z" fill="#C9C9C9"/>
<g clip-path="url(#clip2)">
<path d="M123.377 173.45H122.62V172.672H123.377V173.45Z" fill="#080806"/>
<path d="M195.181 250.664C193.52 246.972 188.982 241.502 183.94 239.991C177.707 238.122 163.638 235.863 158.421 234.607C154.239 233.599 145.816 225.823 142.864 223.213C142.335 222.746 141.901 221.783 141.891 221.066C141.785 212.617 145.064 190.171 145.064 190.171H122.999H100.934C100.934 190.171 104.212 212.616 104.106 221.066C104.097 221.783 103.662 222.746 103.134 223.213C100.182 225.823 91.7589 233.599 87.5769 234.607C82.3594 235.863 68.29 238.199 62.0579 240.068C57.0144 241.579 52.4776 246.972 50.8164 250.663C48.0113 256.891 47.3486 268.162 47.3486 277.884H122.999H198.648C198.648 268.163 197.985 256.892 195.181 250.664Z" fill="#93614A"/>
<path d="M167.75 238.437C186.165 241.192 193.914 245.21 196.341 277.886H198.648C198.648 268.164 197.985 256.893 195.181 250.664C193.52 246.973 188.982 241.503 183.94 239.992C177.707 238.123 163.638 235.864 158.421 234.608C154.239 233.6 144.621 225.221 142.048 221.891C144.59 225.55 151.724 234.028 157.975 236.249C160.966 237.311 163.456 237.795 167.75 238.437ZM88.0225 236.249C94.2734 234.029 101.407 225.55 103.95 221.891C101.378 225.22 91.7596 233.6 87.5769 234.608C82.3601 235.864 68.2907 238.2 62.0579 240.069C57.0158 241.579 52.4776 246.972 50.8163 250.664C48.0127 256.892 47.3493 268.163 47.3493 277.885H49.6566C52.0683 245.418 59.8504 241.188 78.2477 238.437C82.5409 237.795 85.032 237.311 88.0225 236.249Z" fill="#A27662"/>
<path d="M119.705 248.985C119.705 248.985 115.866 247.734 114.346 247.135C106.442 244.017 80.7616 241.996 80.7616 241.996C80.7616 241.996 107.81 243.1 113.778 244.158C113.432 240.45 111.496 228.6 111.496 228.6C111.496 228.6 115.391 241.677 116.344 244.977C116.854 246.741 119.705 248.985 119.705 248.985ZM127.874 247.941C127.807 247.998 127.73 248.072 127.646 248.15C127.731 248.084 127.808 248.015 127.874 247.941ZM119.705 248.985C119.705 248.985 121.893 251.312 122.993 251.342C124.438 251.381 126.646 249.087 127.646 248.15C126.689 248.894 124.5 249.232 123.629 249.267C122.623 249.306 119.705 248.985 119.705 248.985ZM135.605 243.137C134.436 243.33 132.287 243.751 132.287 243.751L134.017 232.17C133.528 234.559 130.632 244.778 127.874 247.941C129.319 246.685 132.533 246.082 134.171 245.838C141.915 244.684 141.912 244.685 165.235 241.996C165.235 241.996 143.242 241.876 135.605 243.137Z" fill="#844E35"/>
<path d="M195.181 250.664C193.52 246.972 188.982 241.502 183.94 239.991C177.707 238.122 163.638 235.863 158.421 234.607C154.239 233.599 145.816 225.823 142.864 223.213C142.335 222.746 141.901 221.783 141.891 221.066C141.785 212.617 145.064 190.171 145.064 190.171H122.999H100.934C100.934 190.171 104.212 212.616 104.106 221.066C104.097 221.783 103.662 222.746 103.134 223.213C100.182 225.823 91.7589 233.599 87.5769 234.607C82.3594 235.863 68.29 238.199 62.0579 240.068C57.0144 241.579 52.4776 246.972 50.8164 250.663C48.0113 256.891 47.3486 268.162 47.3486 277.884H122.999H198.648C198.648 268.163 197.985 256.892 195.181 250.664Z" stroke="#652E15" stroke-width="3.825"/>
<path d="M104.477 222.1C109.757 225.631 116.813 228.955 123 228.955C128.922 228.955 136.122 225.604 141.502 222.057C141.393 221.724 141.326 221.387 141.322 221.074C141.226 213.392 143.852 194.614 144.405 190.755H101.592C102.144 194.615 104.771 213.392 104.674 221.073C104.67 221.395 104.597 221.751 104.477 222.1Z" fill="url(#paint0_linear)"/>
<path d="M196.983 252.039C189.056 236.267 173.794 238.503 159.182 234.272C158.828 237.061 149.158 250.2 146.861 257.652C145.571 256.546 144.031 255.066 142.92 253.712C137.482 247.146 129.423 225.9 126.719 242.491C127.307 235.043 130.504 233.402 134.943 239.645C139.715 246.363 139.892 249.832 146.7 257.138C147.903 252.004 150.507 248.381 153.536 243.835C156.468 239.43 158.608 237.444 158.922 233.523C157.829 231.651 158.09 230.812 156.324 229.599C145.237 221.89 153.153 214.067 143.103 212.205C143.025 213.136 142.925 214.18 142.842 214.965C144.991 216.102 145.634 220.527 142.326 223.767C137.067 229.702 128.618 229.997 126.415 239.107L126.41 239.106C125.708 241.81 125.147 245.95 124.881 248.376L123.023 267.741L121.155 248.719C119.64 234.44 117.659 233.044 111.182 228.631C106.89 225.707 99.8776 221.295 102.167 216.306C102.428 215.729 102.746 215.375 103.14 215.108C103.026 213.968 102.96 213.307 102.872 212.247C94.5753 212.611 95.8508 224.677 89.568 229.117C87.9211 230.28 87.0814 231.356 86.4906 233.106C86.8923 237.991 97.4629 249.031 99.3095 257.138C106.182 249.677 106.235 246.418 111.035 239.67C115.169 233.864 118.546 234.46 119.256 242.317C118.866 239.956 117.941 236.343 115.938 236.343C114.287 236.343 112.567 238.846 111.716 240.053C106.951 246.803 106.185 251.63 99.1226 257.656C98.6339 256.147 98.0605 254.63 97.3766 253.218C94.5776 247.406 86.9982 235.676 86.1366 234.539C82.7868 235.508 77.6812 236.582 74.6128 237.106C54.5625 240.536 46.7903 247.192 43.8346 278.351C117.368 277.585 147.332 277.918 202.102 277.918C201.417 270.985 200.071 258.194 196.983 252.039Z" fill="#1E78A2"/>
<path d="M153.235 243.668C150.617 247.598 148.544 250.901 147.253 255.039C148.741 246.5 158.173 238.416 157.152 233.31C156.715 231.123 149.189 226.247 148.8 218.999C150.876 225.64 158.628 230.379 158.641 233.561C158.661 238.767 158.51 235.744 153.235 243.668ZM202.042 277.302C202.305 270.549 200.096 257.404 197.359 251.948C189.433 236.177 173.482 238.189 158.871 233.959C158.742 234.129 159.242 235.25 158.891 235.732C193.047 242.203 196.936 249.916 202.042 277.302ZM89.5703 229.118C93.7666 225.542 95.0247 222.079 95.9877 218.998C93.8317 231.66 90.6082 226.871 88.2563 233.212C86.9112 236.839 97.3365 246.748 98.7459 255.038C96.8985 251.791 94.918 247.795 92.2998 243.865C90.2617 240.803 88.9636 238.003 86.9445 235.646C85.9822 230.425 87.9696 230.482 89.5703 229.118ZM86.9437 235.647C86.5935 235.165 86.2674 234.71 86.1381 234.541C71.527 238.77 56.9417 236.177 49.0159 251.949C46.2781 257.404 44.9111 268.564 44.1569 275.331C45.6162 267.108 47.7911 256.749 52.4504 250.499C60.3513 239.48 74.9305 237.354 86.9437 235.647Z" fill="#3389B1"/>
<path d="M138.014 228.586C134.335 230.78 131.219 232.932 129.153 235.96C134.121 236.242 137.793 245.37 138.786 246.611C129.456 233.261 125.925 242.334 124.791 250.836C125.117 248.078 125.386 243.373 125.916 241.353C126.07 240.55 126.236 239.781 126.41 239.106L126.416 239.107C128.619 229.997 137.068 229.702 142.326 223.767C145.635 220.527 144.991 216.102 142.843 214.965C142.925 214.18 143.025 213.136 143.104 212.205C143.655 212.308 144.147 212.432 144.603 212.569C151.381 218.699 142.637 226.459 138.014 228.586ZM107.086 228.586C110.765 230.78 115.265 233.379 117.326 236.144C113.696 235.465 109.661 241.039 107.644 245.964C116.344 234.557 118.991 241.039 121.765 250.837C121.439 248.08 120.613 243.374 120.083 241.354C119.929 240.55 119.764 239.782 119.588 239.107L119.584 239.108C117.381 229.998 109.233 229.703 103.975 223.768C100.666 220.528 101.235 216.103 103.384 214.966C103.302 214.181 103.202 213.137 103.124 212.205C102.572 212.309 102.081 212.432 101.624 212.57C95.9446 219.701 102.93 225.995 107.086 228.586Z" fill="#0C6893"/>
<path d="M142.574 222.311C142.597 217.877 142.453 220.337 142.89 215.319C144.572 216.247 144.786 220.055 142.574 222.311ZM103.435 221.892C101.677 219.527 101.46 217.112 103.172 215.288C103.582 219.222 103.374 218.748 103.435 221.892Z" fill="#005A83"/>
<path d="M159.026 232.882C158.87 230.127 153.116 227.83 150.562 221.857C148.734 217.603 150.469 212.731 142.948 211.948C142.536 214.427 142.17 219.876 142.28 222.509C138.469 226.727 132.574 227.818 128.826 232.353C124.825 237.194 123.092 247.675 123.026 269.426L123.958 268.803C123.958 268.803 124.996 248.204 125.003 248.144C127.336 227.59 134.753 232.445 142.387 223.829C145.807 220.46 144.99 215.995 142.933 214.914C143.022 214.042 143.106 213.18 143.179 212.308C149.648 213.53 147.8 217.445 149.824 222.227C152.514 228.584 157.614 229.972 157.943 233.055C158.465 237.94 155.629 240.014 152.786 244.281C148.313 250.938 147.278 254.334 146.657 256.965C139.868 249.634 139.864 246.42 135.009 239.592C129.831 232.307 126.431 235.723 125.003 248.144C125.15 246.102 127.855 234.786 131.088 236.749C134.824 238.987 138.495 248.499 142.86 253.771C144.024 255.189 145.523 256.611 146.903 257.801C149.481 248.548 159.007 238.773 159.316 234.309C174.215 238.63 199.742 234.196 202.013 277.834C170.893 278.005 137.094 277.304 43.9277 278.265C45.278 263.926 47.5619 249.871 55.8221 243.536C59.3663 240.809 63.4756 239.382 67.7082 238.475C73.6067 237.218 80.2071 236.41 86.0556 234.783C86.6517 235.56 96.8017 251.269 99.0856 257.802C107.303 251.189 110.59 238.779 115.114 236.636C118.264 235.148 120.833 245.921 120.979 247.955C119.746 234.818 115.722 230.519 108.101 244.126C104.346 250.833 103.35 252.652 99.3556 256.966C97.7519 249.971 86.5746 236.781 87.0603 233.119C87.5399 229.506 91.8368 230.504 94.6994 222.819C96.3047 218.51 95.9491 213.759 102.8 212.354C102.874 213.262 102.964 214.158 103.054 215.065C101.179 216.334 100.702 220.596 103.699 223.575C106.397 226.752 111.267 228.565 114.483 231.101C118.273 234.108 119.773 237.188 120.979 247.955C121.006 248.19 122.016 268.909 122.016 268.909L123.024 269.428C122.52 247.78 120.501 234.765 116.427 231.117C112.908 227.89 106.763 225.832 103.78 222.228C103.871 219.525 103.353 214.048 103.029 211.985C96.2139 212.699 96.021 217.147 94.5594 221.031C90.6521 231.415 86.8931 228.441 86.2705 232.743C86.2122 233.146 86.3022 233.448 86.3968 233.983C80.6625 235.187 73.506 235.977 67.7559 237.058C59.1749 238.668 51.0789 243.325 47.3871 252.186C44.5828 258.912 43.7703 270.892 43.5646 278.274C43.5562 278.327 43.5562 278.389 43.5562 278.442C43.6712 278.451 43.7938 278.451 43.9088 278.451C142.613 279.53 201.6 278.001 202.421 278.001C202.71 236.501 180.645 238.316 159.026 232.882ZM142.649 222.078C142.661 219.797 142.729 217.156 142.89 215.319C144.099 216.205 145.038 219.152 142.649 222.078ZM103.396 221.743C101.39 219.043 102.186 216.426 103.097 215.521C103.286 217.346 103.361 219.9 103.396 221.743Z" fill="#004F74"/>
<path d="M81.8986 160.885C80.7752 158.97 77.1123 153.73 74.3102 154.465C72.0316 155.066 72.0611 158.331 71.8849 160.263C71.6277 163.098 71.5338 168.035 72.282 170.038C73.0015 171.962 75.2778 175.678 76.6909 177.096C78.4301 178.834 81.2072 184.374 81.5491 184.949C82.087 185.858 83.1658 187.158 84.821 187.055C87.1442 186.911 89.1512 184.654 89.3335 183.567C90.3177 177.664 84.8225 165.867 81.8986 160.885Z" fill="#93614A" stroke="#652E15" stroke-width="3.825"/>
<path d="M80.7858 172.549C80.6777 172.111 80.7911 171.372 80.9023 170.66C81.003 170.01 81.0975 169.397 81.04 168.963C80.8214 167.337 79.5913 164.249 78.7887 162.576C77.8635 160.65 76.3686 158.224 74.4925 157.599C73.7179 157.34 73.2072 157.649 72.9122 157.963C72.6943 158.193 72.6451 158.464 72.7162 158.497C72.7881 158.529 72.9485 158.304 73.183 158.093C73.3752 157.921 72.7987 158.062 73.183 158.093C73.0279 158.902 72.5286 162.995 72.8728 165.982C73.1437 168.333 73.6672 170.088 73.8283 170.351C73.8518 170.628 73.8911 170.899 73.9493 171.162C74.7074 174.592 79.6367 179.077 80.7836 180.355C80.9954 180.591 81.2178 180.731 81.2723 180.673C81.3267 180.616 81.1959 180.383 80.9856 180.146C79.8523 178.876 74.9555 174.405 74.2232 171.097C73.4463 167.586 77.1826 162.38 77.778 161.279C78.0813 161.796 78.3393 162.293 78.5375 162.706C78.6941 163.031 78.8658 163.411 79.0444 163.822C78.6941 164.396 75.1726 168.588 76.0683 171.943C76.3996 173.18 78.9596 174.775 79.9499 175.212C80.4946 175.453 80.6988 175.812 80.9364 176.227C81.2117 176.713 80.9613 177.961 81.8669 178.358C82.0515 178.439 82.2179 178.471 82.3654 178.471C82.6211 178.471 82.8148 178.37 82.9577 178.25C82.9729 178.461 82.9721 178.732 82.9646 178.982C82.9555 179.307 83.0001 179.456 83.0765 179.462C83.1544 179.469 83.2354 179.327 83.2452 179.006C83.2581 178.609 83.2558 178.118 83.187 177.883C82.9835 177.191 82.3639 176.409 81.7065 175.583C81.0604 174.77 80.9538 173.227 80.7858 172.549ZM73.8026 169.509C72.0263 164.124 74.7732 159.22 75.1718 158.481C75.9374 158.791 77.11 160.186 77.6085 160.997C77.2454 161.645 73.8767 165.887 73.8026 169.509ZM81.9751 178.089C81.155 177.729 81.441 176.546 81.1762 176.079C80.9356 175.657 80.6875 175.222 80.0573 174.943C79.9212 174.883 79.7706 174.791 79.6163 174.685C77.5874 169.96 79.8379 167.895 80.4023 167.473C80.5755 168.05 80.7041 168.58 80.7624 169.005C80.8138 169.394 80.7177 170.015 80.6255 170.614C80.5097 171.356 80.3909 172.126 80.5143 172.623C80.6988 173.365 80.8252 174.933 81.4909 175.772C82.0817 176.515 82.6884 177.282 82.8957 177.907C82.8064 178.032 82.5258 178.331 81.9751 178.089Z" fill="#652E15"/>
<path d="M163.899 160.885C165.024 158.97 168.687 153.73 171.488 154.465C173.766 155.066 173.737 158.331 173.914 160.263C174.171 163.098 174.264 168.035 173.517 170.038C172.797 171.962 170.52 175.678 169.108 177.096C167.369 178.834 164.591 184.374 164.25 184.949C163.712 185.858 162.633 187.158 160.977 187.055C158.655 186.911 156.648 184.654 156.465 183.567C155.481 177.664 160.977 165.867 163.899 160.885Z" fill="#93614A" stroke="#652E15" stroke-width="3.825"/>
<path d="M164.093 175.583C163.436 176.41 162.816 177.192 162.613 177.883C162.543 178.12 162.541 178.61 162.554 179.006C162.564 179.328 162.645 179.47 162.724 179.463C162.801 179.457 162.845 179.308 162.836 178.983C162.828 178.733 162.827 178.462 162.842 178.251C162.985 178.371 163.178 178.472 163.434 178.472C163.582 178.472 163.749 178.439 163.933 178.358C164.837 177.961 164.588 176.713 164.863 176.228C165.101 175.813 165.305 175.453 165.85 175.212C166.841 174.776 169.401 173.182 169.732 171.944C170.628 168.588 167.106 164.396 166.756 163.823C166.933 163.412 167.106 163.031 167.261 162.707C167.461 162.293 167.718 161.796 168.022 161.28C168.618 162.381 172.353 167.586 171.577 171.097C170.844 174.406 165.948 178.877 164.815 180.147C164.604 180.384 164.472 180.616 164.527 180.674C164.583 180.731 164.804 180.591 165.015 180.356C166.162 179.078 171.091 174.593 171.849 171.163C171.908 170.9 171.948 170.628 171.971 170.352C172.131 170.089 172.655 168.334 172.926 165.983C173.27 162.996 172.771 158.903 172.616 158.094C173 158.063 172.424 157.922 172.616 158.094C172.851 158.305 173.011 158.53 173.083 158.498C173.154 158.465 173.104 158.195 172.887 157.964C172.592 157.65 172.081 157.341 171.306 157.6C169.43 158.225 167.935 160.651 167.009 162.576C166.207 164.25 164.977 167.338 164.759 168.963C164.701 169.397 164.796 170.011 164.896 170.66C165.007 171.373 165.121 172.112 165.013 172.549C164.845 173.227 164.739 174.77 164.093 175.583ZM168.19 160.997C168.69 160.186 169.861 158.792 170.627 158.481C171.026 159.22 173.772 164.124 171.997 169.508C171.923 165.886 168.554 161.645 168.19 160.997ZM162.904 177.906C163.11 177.281 163.718 176.514 164.309 175.77C164.974 174.932 165.101 173.363 165.285 172.622C165.408 172.124 165.29 171.355 165.175 170.612C165.082 170.013 164.986 169.393 165.037 169.004C165.095 168.578 165.223 168.049 165.397 167.472C165.961 167.894 168.211 169.96 166.183 174.684C166.029 174.789 165.878 174.881 165.741 174.942C165.111 175.22 164.863 175.656 164.622 176.077C164.357 176.544 164.644 177.728 163.824 178.087C163.273 178.33 162.992 178.032 162.904 177.906Z" fill="#652E15"/>
<path d="M123 95.9606C97.568 96.0018 76.9141 117.48 76.9534 143.942C76.9602 148.144 77.486 152.22 78.4679 156.102H78.4687C78.4777 156.144 84.7786 172.03 86.3839 181.927C88.1844 193.03 94.2984 205.44 98.7164 209.759C103.295 214.236 114.059 221.178 122.999 221.178C131.523 221.178 142.703 214.236 147.282 209.759C151.7 205.44 157.814 193.03 159.615 181.927C161.22 172.03 167.522 156.144 167.53 156.102H167.531C168.513 152.219 169.04 148.144 169.046 143.942C169.087 117.48 148.432 96.0018 123 95.9606Z" fill="#93614A"/>
<path d="M150.914 105.809C160.647 114.612 166.848 127.91 166.828 142.783C166.821 146.985 166.32 151.059 165.386 154.942H165.385C165.377 154.984 159.379 170.87 157.851 180.767C156.136 191.871 150.317 204.281 146.113 208.6C141.754 213.077 131.113 220.019 123 220.019C114.49 220.019 104.245 213.077 99.8874 208.6C95.6828 204.281 89.8638 191.871 88.1496 180.767C86.6215 170.871 80.6239 154.985 80.6156 154.942H80.6149C79.6798 151.059 79.179 146.985 79.173 142.783C79.1518 127.911 85.3521 114.614 95.0844 105.811C84.0531 114.581 76.9307 128.398 76.9534 143.942C76.9602 148.144 77.486 152.22 78.4679 156.102H78.4687C78.4777 156.144 84.7786 172.03 86.3839 181.927C88.1844 193.03 94.2984 205.44 98.7164 209.759C103.295 214.236 114.059 221.178 122.999 221.178C131.523 221.178 142.703 214.236 147.282 209.759C151.7 205.44 157.814 193.03 159.615 181.927C161.22 172.03 167.522 156.144 167.53 156.102H167.531C168.513 152.219 169.04 148.144 169.046 143.942C169.07 128.397 161.947 114.579 150.914 105.809Z" fill="#8B573F"/>
<path d="M123 95.9606C97.568 96.0018 76.9141 117.48 76.9534 143.942C76.9602 148.144 77.486 152.22 78.4679 156.102H78.4687C78.4777 156.144 84.7786 172.03 86.3839 181.927C88.1844 193.03 94.2984 205.44 98.7164 209.759C103.295 214.236 114.059 221.178 122.999 221.178C131.523 221.178 142.703 214.236 147.282 209.759C151.7 205.44 157.814 193.03 159.615 181.927C161.22 172.03 167.522 156.144 167.53 156.102H167.531C168.513 152.219 169.04 148.144 169.046 143.942C169.087 117.48 148.432 96.0018 123 95.9606Z" stroke="#652E15" stroke-width="3.825"/>
<path d="M123.15 204.908C121.007 205.02 120.393 202.767 120.393 202.767C120.393 202.767 123.367 203.206 125.682 202.492C125.683 202.493 125.035 204.811 123.15 204.908Z" fill="url(#paint1_linear)"/>
<path d="M123.368 203.207C121.867 203.285 120.519 203.147 120.435 203.138C120.33 203.127 120.255 203.032 120.265 202.926C120.277 202.819 120.373 202.745 120.473 202.752C120.504 202.754 123.571 203.067 125.57 202.49C125.669 202.465 125.775 202.522 125.804 202.625C125.832 202.728 125.773 202.835 125.673 202.865C124.966 203.068 124.146 203.166 123.368 203.207Z" fill="#652E15"/>
<path d="M109.76 195.071C109.76 195.071 119.24 196.226 122.407 196.237C125.851 196.246 136.994 195.071 136.994 195.071C133.773 197.819 130.228 200.462 122.2 200.514C115.02 200.562 113.18 197.881 109.76 195.071Z" fill="white"/>
<path d="M109.76 195.071C109.76 195.071 119.24 196.226 122.407 196.237C125.851 196.246 136.994 195.071 136.994 195.071C133.773 197.819 130.228 200.462 122.2 200.514C115.02 200.562 113.18 197.881 109.76 195.071Z" stroke="#652E15" stroke-width="1.9125"/>
<path d="M109.483 165.768C107.241 165.219 106.1 166.509 102.805 166.584C97.3193 166.708 96.0387 166.151 95.1801 164.738C94.824 164.152 94.4836 163.388 94.3195 162.917L94.2514 160.013C95.1556 157.248 107.556 156.966 111.885 161.261C112.081 161.728 112.18 162.162 112.202 162.568C112.073 163.239 111.853 163.883 111.557 164.493C111.077 165.06 110.358 165.491 109.483 165.768Z" fill="url(#paint2_radial)"/>
<path d="M107.563 162.355C107.563 164.674 105.733 166.555 103.478 166.555C101.222 166.555 99.3925 164.674 99.3925 162.355C99.3925 160.034 101.222 158.155 103.478 158.155C105.733 158.155 107.563 160.035 107.563 162.355Z" fill="#4D3623"/>
<path d="M101.103 164.319C101.699 164.268 101.171 164.105 101.171 164.105C100.876 163.942 100.321 163.69 100.321 163.46C100.321 162.738 101.284 162.551 100.298 162.267C99.274 161.301 101.093 161.32 101.079 161.288C100.415 159.625 101.283 160.538 101.647 160.047C103.001 158.228 102.025 160.234 102.759 160.047C103.026 159.98 102.228 158.975 102.782 159.116C103.149 159.208 103.233 159.522 103.233 159.522C103.501 159.468 103.919 159.045 103.919 159.045C104.429 159.203 104.788 159.948 104.63 159.808C104.88 159.777 105.231 159.654 105.505 159.57C105.505 159.57 105.553 159.402 105.6 159.546C106.224 161.409 107.836 161.275 105.98 161.814C105.98 161.814 105.861 161.814 106.24 162.124C108.086 163.639 104.809 163.17 106.548 163.867C106.618 163.794 105.506 164.542 105.506 164.749C105.506 165.1 104.796 166.022 104.181 165.659C103.838 165.458 103.785 166.079 103.584 165.792C103.188 165.23 102.398 165.768 102.69 165.251C103.122 164.887 102.245 165.394 102.074 165.394C101.511 165.394 102.812 163.446 104.726 164.894C105.285 165.315 104.137 163.891 105.151 163.891C105.253 163.925 105.222 163.526 105.222 163.413C104.695 163.307 106.168 163.411 106.168 162.53C106.262 162.549 106.515 162.285 105.055 162.53C105.055 162.53 105.009 162.005 105.032 161.91C105.107 161.603 105.859 161.701 105.647 161.385C105.647 161.384 105.103 160.262 105.103 160.262C103.352 159.972 104.353 159.791 103.258 160.023C103.206 160.288 100.912 161.412 100.985 161.933C101.053 162.425 102.425 162.59 101.127 163.461C103.072 167.291 99.69 163.373 101.103 164.319Z" fill="#5C4633"/>
<path d="M103.478 158.68L103.594 161.755L104.845 158.96L103.808 161.846L106.005 159.756L103.973 162.015L106.78 160.948L104.062 162.236L107.053 162.355L104.062 162.474L106.78 163.761L103.973 162.695L106.005 164.953L103.808 162.864L104.845 165.75L103.594 162.955L103.478 166.03L103.361 162.955L102.11 165.75L103.146 162.864L100.95 164.953L102.982 162.695L100.174 163.761L102.892 162.474L99.9032 162.355L102.892 162.236L100.174 160.948L102.982 162.015L100.95 159.756L103.146 161.846L102.11 158.96L103.361 161.755L103.478 158.68Z" fill="#2E1B0C"/>
<path d="M104.02 159.602L103.653 161.923L105.001 160.025L103.799 162.025L105.753 160.802L103.898 162.176L106.157 161.816L103.932 162.355L106.156 162.911L103.898 162.535L105.744 163.922L103.798 162.687L104.988 164.695L103.651 162.787L104.003 165.111L103.478 162.822L102.936 165.106L103.303 162.786L101.953 164.684L103.156 162.684L101.203 163.907L103.058 162.533L100.798 162.894L103.024 162.354L100.802 161.799L103.059 162.175L101.212 160.788L103.158 162.023L101.969 160.015L103.306 161.922L102.955 159.6L103.48 161.889L104.02 159.602Z" fill="#1F1105"/>
<path opacity="0.9" d="M105.01 162.355C105.01 163.226 104.323 163.93 103.478 163.93C102.632 163.93 101.946 163.226 101.946 162.355C101.946 161.485 102.632 160.781 103.478 160.781C104.323 160.781 105.01 161.485 105.01 162.355Z" fill="black"/>
<path opacity="0.7" d="M101.869 165.373C101.643 165.605 101.198 165.524 100.875 165.19C100.551 164.858 100.471 164.4 100.697 164.168C100.922 163.936 101.368 164.018 101.691 164.35C102.015 164.684 102.095 165.141 101.869 165.373Z" fill="white"/>
<path opacity="0.9" d="M106.75 161.528C106.412 161.875 105.594 161.598 104.924 160.908C104.252 160.218 103.983 159.377 104.321 159.03C104.658 158.683 105.476 158.96 106.147 159.65C106.818 160.341 107.087 161.181 106.75 161.528Z" fill="white"/>
<path d="M89.5059 162.249C89.2458 164.562 96.215 177.651 103.171 177.651C110.127 177.651 116.448 173.947 116.448 162.25C116.448 149.798 110.127 146.85 103.171 146.85C96.215 146.85 90.7975 150.774 89.5059 162.249ZM94.3202 162.918L94.2521 160.013C95.1563 157.249 107.557 156.967 111.886 161.262C112.837 163.524 111.608 165.096 109.483 165.769C107.241 165.22 106.1 166.51 102.805 166.585C97.3193 166.709 96.0387 166.152 95.1801 164.738C94.824 164.152 94.4836 163.389 94.3202 162.918Z" fill="#93614A"/>
<path d="M93.5699 161.069C93.5856 166.343 98.7757 170.591 105.17 170.565C111.563 170.535 116.734 166.24 116.718 160.966C116.702 155.693 111.512 151.443 105.116 151.47C98.7219 151.501 93.5529 155.795 93.5699 161.069ZM94.3202 162.918L94.2521 160.013C95.1563 157.249 107.557 156.967 111.886 161.262C112.837 163.524 111.608 165.096 109.483 165.769C107.241 165.22 106.1 166.51 102.805 166.585C97.3193 166.709 96.0387 166.152 95.1801 164.738C94.824 164.152 94.4836 163.389 94.3202 162.918Z" fill="url(#paint3_radial)"/>
<path d="M95.1801 164.738C94.824 164.152 94.4836 163.389 94.3195 162.918L94.2514 160.013C95.1556 157.249 107.556 156.967 111.885 161.262C112.836 163.524 111.607 165.096 109.483 165.769C107.241 165.22 106.1 166.51 102.804 166.585C97.32 166.709 96.0387 166.151 95.1801 164.738Z" fill="url(#paint4_radial)"/>
<path d="M113.837 160.216C107.289 156.183 102.466 155.926 94.6933 156.44C101.181 155.389 108.653 156.152 113.837 160.216Z" fill="#652E15"/>
<path d="M112.996 163.079C110.79 157.258 95.3326 157.224 94.3195 160.152V162.878C93.6244 161.801 93.6067 161.735 93.3098 160.496L91.8154 161.018C91.8154 161.018 93.685 158.307 95.4232 157.951C110.528 154.858 112.867 162.145 112.996 163.079ZM110.622 165.974C107.473 164.588 106.578 166.239 102.749 166.321C97.2996 166.438 96.2354 165.785 95.1747 164.588C95.7282 166.051 96.1108 166.747 102.579 166.707C106.239 166.683 108.239 165.129 110.622 165.974Z" fill="#09112E"/>
<path d="M136.212 165.768C138.454 165.219 139.595 166.509 142.891 166.584C148.376 166.708 149.657 166.151 150.515 164.738C150.871 164.152 151.212 163.388 151.376 162.917L151.444 160.013C150.54 157.248 138.14 156.966 133.81 161.261C133.615 161.728 133.515 162.162 133.493 162.568C133.623 163.239 133.842 163.883 134.138 164.493C134.619 165.06 135.338 165.491 136.212 165.768Z" fill="url(#paint5_radial)"/>
<path d="M146.575 162.355C146.575 164.676 144.748 166.555 142.49 166.555C140.232 166.555 138.405 164.676 138.405 162.355C138.405 160.034 140.232 158.155 142.49 158.155C144.748 158.155 146.575 160.034 146.575 162.355Z" fill="#4D3623"/>
<path d="M140.113 164.32C140.711 164.266 140.184 164.106 140.184 164.106C139.889 163.942 139.33 163.692 139.33 163.458C139.33 162.736 140.296 162.551 139.315 162.264C138.285 161.301 140.104 161.321 140.089 161.288C139.426 159.623 140.296 160.538 140.663 160.046C142.012 158.228 141.039 160.235 141.773 160.046C142.036 159.98 141.238 158.975 141.796 159.115C142.163 159.209 142.243 159.521 142.243 159.521C142.514 159.467 142.929 159.045 142.929 159.045C143.44 159.201 143.799 159.947 143.639 159.808C143.895 159.775 144.246 159.651 144.517 159.57C144.517 159.57 144.565 159.402 144.613 159.545C145.235 161.407 146.847 161.276 144.996 161.813C144.996 161.813 144.877 161.813 145.252 162.12C147.095 163.638 143.823 163.166 145.563 163.863C145.634 163.793 144.518 164.54 144.518 164.749C144.518 165.098 143.808 166.021 143.194 165.656C142.85 165.455 142.795 166.079 142.595 165.791C142.204 165.229 141.406 165.766 141.701 165.25C142.132 164.885 141.254 165.393 141.087 165.393C140.52 165.393 141.821 163.445 143.736 164.893C144.294 165.311 143.146 163.888 144.167 163.888C144.263 163.921 144.239 163.523 144.239 163.412C143.704 163.305 145.18 163.408 145.18 162.526C145.276 162.546 145.532 162.283 144.071 162.526C144.071 162.526 144.023 162.001 144.047 161.906C144.119 161.599 144.869 161.697 144.661 161.381L144.119 160.258C142.364 159.971 143.368 159.79 142.268 160.02C142.22 160.286 139.922 161.41 139.994 161.931C140.065 162.423 141.438 162.587 140.137 163.457C142.083 167.293 138.701 163.372 140.113 164.32Z" fill="#5C4633"/>
<path d="M142.49 158.68L142.61 161.756L143.855 158.959L142.818 161.847L145.02 159.755L142.985 162.015L145.794 160.949L143.073 162.237L146.065 162.356L143.073 162.475L145.794 163.763L142.985 162.697L145.02 164.957L142.818 162.866L143.855 165.753L142.61 162.956L142.49 166.03L142.37 162.953L141.118 165.75L142.155 162.863L139.96 164.954L141.995 162.694L139.186 163.76L141.907 162.472L138.914 162.353L141.907 162.234L139.186 160.946L141.995 162.012L139.96 159.752L142.155 161.844L141.118 158.956L142.37 161.753L142.49 158.68Z" fill="#2E1B0C"/>
<path d="M143.033 159.602L142.666 161.924L144.014 160.025L142.809 162.026L144.764 160.799L142.912 162.178L145.17 161.816L142.944 162.354L145.17 162.912L142.912 162.535L144.755 163.921L142.809 162.686L143.998 164.695L142.665 162.788L143.017 165.109L142.49 162.822L141.948 165.107L142.315 162.786L140.966 164.685L142.172 162.684L140.217 163.91L142.068 162.532L139.81 162.893L142.037 162.355L139.81 161.798L142.068 162.175L140.225 160.789L142.172 162.024L140.983 160.014L142.315 161.921L141.964 159.6L142.49 161.889L143.033 159.602Z" fill="#1F1105"/>
<path opacity="0.9" d="M144.022 162.355C144.022 163.224 143.336 163.93 142.49 163.93C141.645 163.93 140.958 163.224 140.958 162.355C140.958 161.485 141.645 160.78 142.49 160.78C143.336 160.78 144.022 161.485 144.022 162.355Z" fill="black"/>
<path opacity="0.7" d="M140.879 165.374C140.655 165.603 140.209 165.526 139.889 165.189C139.563 164.856 139.482 164.401 139.714 164.168C139.937 163.938 140.384 164.02 140.703 164.352C141.03 164.684 141.11 165.14 140.879 165.374Z" fill="white"/>
<path opacity="0.9" d="M145.762 161.526C145.427 161.875 144.605 161.599 143.934 160.907C143.264 160.218 142.993 159.376 143.336 159.032C143.671 158.683 144.485 158.958 145.155 159.651C145.833 160.341 146.097 161.182 145.762 161.526Z" fill="white"/>
<path d="M142.525 146.85C135.569 146.85 129.248 149.798 129.248 162.25C129.248 173.947 135.569 177.651 142.525 177.651C149.481 177.651 156.068 165.029 156.19 162.249C156.697 150.709 149.481 146.85 142.525 146.85ZM150.515 164.738C149.657 166.152 148.375 166.709 142.891 166.585C139.595 166.51 138.454 165.22 136.212 165.769C134.088 165.096 132.859 163.524 133.809 161.262C138.139 156.967 150.539 157.249 151.443 160.013L151.375 162.918C151.213 163.389 150.872 164.152 150.515 164.738Z" fill="#93614A"/>
<path d="M140.579 151.47C134.184 151.442 128.994 155.693 128.978 160.966C128.961 166.24 134.133 170.535 140.526 170.565C146.92 170.591 152.11 166.342 152.126 161.069C152.143 155.795 146.974 151.501 140.579 151.47ZM150.515 164.738C149.657 166.152 148.375 166.709 142.891 166.585C139.595 166.51 138.454 165.22 136.212 165.769C134.088 165.096 132.859 163.524 133.809 161.262C138.139 156.967 150.539 157.249 151.443 160.013L151.375 162.918C151.213 163.389 150.872 164.152 150.515 164.738Z" fill="url(#paint6_radial)"/>
<path d="M150.515 164.738C150.871 164.152 151.212 163.389 151.376 162.918L151.444 160.013C150.54 157.249 138.14 156.967 133.81 161.262C132.86 163.524 134.088 165.096 136.213 165.769C138.455 165.22 139.596 166.51 142.891 166.585C148.376 166.709 149.657 166.151 150.515 164.738Z" fill="url(#paint7_radial)"/>
<path d="M131.859 160.216C138.407 156.183 143.23 155.926 151.003 156.44C144.515 155.389 137.043 156.152 131.859 160.216Z" fill="#652E15"/>
<path d="M150.273 157.951C152.011 158.306 153.881 161.017 153.881 161.017L152.386 160.495C152.089 161.735 152.071 161.8 151.377 162.878V160.151C150.364 157.223 134.907 157.258 132.7 163.078C132.83 162.145 135.167 154.858 150.273 157.951ZM143.117 166.707C149.585 166.748 149.968 166.051 150.521 164.588C149.46 165.785 148.396 166.439 142.946 166.322C139.119 166.24 138.223 164.588 135.074 165.975C137.457 165.129 139.457 166.683 143.117 166.707Z" fill="#09112E"/>
<path d="M154.015 183.929C154.041 201.524 140.177 215.812 123.045 215.837C105.917 215.865 92.0077 201.625 91.9813 184.027C91.9548 166.434 105.819 152.089 122.95 152.061C140.08 152.034 153.99 166.333 154.015 183.929Z" fill="url(#paint8_radial)"/>
<path d="M151.367 137.284C151.367 153.392 138.666 166.45 122.999 166.45C107.331 166.45 94.6298 153.392 94.6298 137.284C94.6298 121.176 107.331 108.118 122.999 108.118C138.666 108.118 151.367 121.176 151.367 137.284Z" fill="url(#paint9_radial)"/>
<path d="M88.1995 152.987C95.7297 145.229 100.879 148.386 111.34 150.448C111.979 150.574 116.121 151.645 115.357 153.146C114.992 153.865 113.817 153.779 113.161 153.767C102.806 153.568 97.7708 145.993 88.1995 152.987Z" fill="#2A232B"/>
<path d="M157.797 152.987C150.268 145.229 145.118 148.386 134.657 150.448C134.017 150.574 129.876 151.645 130.639 153.146C131.005 153.865 132.179 153.779 132.835 153.767C143.19 153.568 148.226 145.993 157.797 152.987Z" fill="#2A232B"/>
<path d="M122.815 188.615C122.126 188.615 121.392 188.62 120.756 188.327C120.076 188.012 119.623 187.886 118.919 187.625C118.239 187.373 117.421 187.988 116.74 188.046C116.189 188.093 115.561 187.93 115.225 187.487C114.091 185.996 115.441 185.079 115.441 185.079C115.441 185.079 115 186.126 115.281 186.589C115.522 186.985 115.878 187.309 116.316 187.416C117.049 187.599 117.745 187.046 118.464 186.988C119.267 186.924 119.851 186.909 120.432 187.392C121.013 187.873 121.647 187.965 122.386 188.004C123.071 188.042 123.791 188.073 124.434 187.8C124.996 187.564 125.467 187.15 125.994 186.846C127.115 186.2 127.997 187.011 129.167 187.338C130.104 187.601 131.115 186.67 130.748 185.608C130.539 185.004 130.573 184.643 130.573 184.643C130.573 184.643 131.466 185.06 131.412 186.085C131.345 187.362 130.262 188.258 129.039 187.922C128.439 187.758 127.791 187.293 127.153 187.411C126.505 187.53 126.006 187.531 125.467 187.895C124.653 188.446 123.791 188.615 122.815 188.615Z" fill="#652E15"/>
<path d="M117.942 181.003C117.942 181.003 120.397 177.489 122.627 177.446C124.692 177.407 127.411 180.532 127.411 180.532C127.411 180.532 124.906 179.454 122.427 179.633C120.215 179.793 117.942 181.003 117.942 181.003Z" fill="#8B573F"/>
<path d="M102.134 218.372C97.739 215.479 92.1636 209.732 90.1059 206.885C84.3111 199.271 86.5806 192.924 83.653 179.547C82.1551 173.714 79.6738 165.159 79.3712 163.02C80.0672 163.129 83.7438 163.642 84.3641 163.743C85.2719 171.046 93.2832 176.25 94.6525 191.268C95.8553 200.71 100.394 205.283 107.823 209.996C110.97 212.003 117.037 215.269 118.475 211.738C119.64 208.884 117.643 203.09 122.484 202.149C123.49 201.962 125.646 202.366 126.471 204.287C127.795 207.367 125.782 213.278 130.072 213.278C134.52 213.278 142.191 207.406 144.332 205.376C152.737 198.283 149.99 189.689 153.849 180.278C158.304 170.136 159.689 171.443 161.618 163.736C162.14 163.681 166.081 163.09 166.611 163.02C163.456 176.226 160.952 182.627 160.619 190.988C160.022 203.409 156.39 207.321 148.235 214.981C143.674 219.018 138.015 223.008 123.747 223.599C119.647 223.879 107.944 222.3 102.134 218.372Z" fill="#080806"/>
<path d="M119.503 204.412C119.973 203.285 120.835 202.398 122.477 202.079C123.505 201.892 125.714 202.312 126.546 204.265C126.577 204.327 126.592 204.397 126.615 204.459C125.336 205.618 123.377 212.26 119.503 204.412ZM154.015 204.171C147.91 215.324 136.948 221.476 124.935 221.515C123.99 221.569 122.257 221.593 121.069 221.515C109.049 221.476 98.087 215.324 91.982 204.171C84.9995 193.407 86.3915 179.991 80.7026 168.823C81.6029 172.182 82.7452 176.281 83.5849 179.571C86.5125 192.941 84.243 199.31 90.053 206.94C92.1787 209.88 97.739 215.573 102.096 218.443C107.626 222.176 118.331 223.786 122.999 223.716C127.666 223.786 138.378 222.184 143.901 218.443C148.258 215.573 153.818 209.88 155.944 206.94C161.754 199.31 159.484 192.941 162.412 179.571C163.252 176.281 164.394 172.182 165.294 168.823C159.606 179.991 160.997 193.407 154.015 204.171Z" fill="black"/>
<path d="M161.565 163.674C159.636 171.428 158.259 170.09 153.788 180.263C149.907 189.721 152.684 198.253 144.286 205.338C142.183 207.329 133.257 214.212 129.066 213.092C126.168 211.988 127.78 207.142 126.546 204.272C125.714 202.32 123.505 201.9 122.477 202.087C117.59 203.036 119.564 208.908 118.414 211.723C116.999 215.184 110.955 211.91 107.869 209.942C100.243 205.104 95.9007 200.415 94.7357 191.268C93.3589 176.172 85.3097 171 84.4397 163.682C84.3641 163.666 79.3712 162.966 79.288 162.935C79.5225 164.887 82.0492 173.59 83.5849 179.571C86.5125 192.94 84.243 199.31 90.053 206.94C92.1787 209.88 97.739 215.573 102.096 218.443C107.952 222.402 119.617 223.973 123.763 223.685C137.962 223.094 143.689 219.12 148.296 215.044C156.587 207.251 160.112 203.37 160.702 190.996C161.035 182.612 163.524 176.32 166.717 162.935C166.679 162.935 161.746 163.674 161.565 163.674ZM159.432 190.848C158.425 203.331 155.959 206.038 147.736 213.745C141.888 218.933 135.715 221.896 122.968 222.829C117.279 222.386 107.165 220.481 102.391 217.035C97.4288 213.582 92.3149 207.749 90.991 205.898C85.5291 198.688 88.1466 192.054 84.6667 179.314C82.3896 171.957 81.2549 169.592 79.4166 163.153C80.1731 163.262 81.966 163.635 84.3792 163.876C85.4005 172.175 92.3376 176.297 93.5858 191.362C93.8506 193.166 94.1683 196.697 96.6345 200.905C97.8903 203.082 99.5243 205.027 100.947 206.232C105.175 210.245 119.239 219.757 119.435 209.429C119.466 206.613 119.087 202.748 123.006 202.157C129.61 203.121 123.959 212.306 128.877 213.909C133.582 215.27 149.393 206.994 151.882 194.48C153.168 189.791 151.224 186.446 158.312 172.696C160.188 169.196 161.103 167.586 161.625 163.876C162.556 163.783 165.96 163.332 166.588 163.145C163.789 172.82 159.954 181.702 159.432 190.848Z" fill="black"/>
<path d="M137.932 198.89C127.742 198.89 124.345 195.997 123.014 195.639C121.788 195.919 118.21 199.318 106.741 198.835C106.401 198.82 105.939 198.804 105.66 198.742C103.246 196.899 103.39 193.796 108.035 192.59C112.362 191.696 117.09 188.694 123.127 188.694C128.226 188.694 130.972 190.599 137.97 192.606C139.838 193.135 141.601 193.64 141.896 196.238C141.79 197.226 141.26 198.065 140.277 198.773C139.838 198.843 138.968 198.89 137.932 198.89Z" fill="#080806"/>
<path d="M119.874 194.372C120.782 193.407 121.516 191.929 122.144 191.261C121.493 192.272 121.145 193.469 119.874 194.372ZM120.003 191.136C118.316 193.485 118.18 193.571 116.092 195.935C118.286 194.216 118.898 193.221 120.003 191.136ZM116.977 192.427C114.185 194.729 114.533 194.154 112.188 196.184C115.305 194.364 115.94 193.586 116.977 192.427ZM113.694 193.205C110.66 195.142 112.869 193.812 108.148 197.226C110.153 196.293 110.055 196.425 113.694 193.205ZM110.168 194.372C108.678 195.056 107.218 195.849 105.879 196.837C107.384 196.184 108.807 195.328 110.168 194.372ZM123.853 191.261C124.527 192.311 124.882 193.493 126.123 194.372C125.177 193.376 124.572 192.023 123.853 191.261ZM125.994 191.136C127.318 193.656 127.969 194.426 129.905 195.935C127.81 193.563 127.681 193.477 125.994 191.136ZM129.02 192.427C129.799 193.306 130.337 194.169 133.809 196.184C132.243 194.83 131.161 194.193 129.02 192.427ZM132.303 193.205C135.715 196.223 135.768 196.254 137.849 197.226C134.921 195.11 134.414 194.558 132.303 193.205ZM135.829 194.372C137.137 195.297 138.59 196.176 140.118 196.837C138.764 195.842 137.296 195.04 135.829 194.372Z" fill="black"/>
<path d="M137.682 192.443C130.382 190.654 125.767 186.252 114.972 190.242C113.489 190.755 109.192 192.279 108.02 192.521C107.452 192.668 106.825 192.808 106.182 193.119C104.154 194.138 102.845 196.705 105.644 198.82C105.962 198.89 106.514 198.906 106.862 198.921C118.18 199.365 121.811 196.036 122.991 195.717C123.498 195.849 123.642 195.958 124.126 196.223C128.922 199.007 138.318 199.186 140.33 198.836C141.253 198.175 141.866 197.343 141.979 196.23C141.661 193.438 139.702 193.026 137.682 192.443ZM124.065 195.445C122.038 194.613 122.181 196.098 115.766 197.21C110.531 198.011 106.386 198.089 105.629 198.035C105.107 197.42 104.653 196.658 104.956 195.904C106.008 193.749 105.266 194.823 115.358 191.307C126.531 187.139 123.369 189.713 137.712 193.641C140.655 194.418 140.504 194.838 141.049 195.927C141.336 196.674 140.875 197.436 140.36 198.035C138.355 198.159 129.535 197.669 124.065 195.445Z" fill="black"/>
<path d="M167.201 127.427C153.258 91.5803 122.998 95.6012 122.998 95.6012C122.998 95.6012 92.7385 91.5811 78.7962 127.427C71.8024 145.408 80.4287 166.566 80.4287 166.566H84.8361C80.9825 149.649 85.4383 152.83 85.7258 149.672C85.815 148.696 85.4988 147.053 85.4073 146.077C84.9594 141.324 86.9066 132.055 89.3751 128.054C90.5878 126.09 93.4367 122.875 95.5587 122.067C103.101 119.194 110.722 122.623 112.848 123.172C116.223 124.043 129.773 124.043 133.149 123.172C135.678 122.519 143.121 119.357 150.438 122.144C152.561 122.953 155.636 126.011 156.849 127.977C159.317 131.977 161.038 140.545 160.59 145.299C160.498 146.275 160.182 148.695 160.27 149.672C160.351 150.564 162.25 152.541 162.463 153.411C163.34 156.998 161.16 166.566 161.16 166.566H165.567C165.567 166.566 174.195 145.408 167.201 127.427Z" fill="#080806"/>
<path d="M164.559 119.523C150.367 92.8644 124.496 94.7955 122.998 94.9324C121.501 94.7955 95.6306 92.8644 81.4379 119.523C70.4747 140.117 78.7962 163.835 79.8077 166.537C79.8652 166.691 80.9999 166.567 80.9999 166.567C80.9954 166.555 80.9212 166.262 80.8743 166.139C79.9597 163.713 71.6534 140.334 82.4335 120.084C96.605 93.4648 122.692 96.0695 122.953 96.0998L122.998 95.6783L123.044 96.0998C123.305 96.0695 149.392 93.4648 163.564 120.083C174.581 140.779 165.662 164.744 165.074 166.268C165.058 166.311 164.993 166.56 164.99 166.566C164.99 166.566 166.13 166.698 166.182 166.558C167.158 163.957 175.55 140.169 164.559 119.523Z" fill="black"/>
</g>
</g>
<defs>
<filter id="filter0_d" x="-4" y="0" width="858" height="441" filterUnits="userSpaceOnUse" color-interpolation-filters="sRGB">
<feFlood flood-opacity="0" result="BackgroundImageFix"/>
<feColorMatrix in="SourceAlpha" type="matrix" values="0 0 0 0 0 0 0 0 0 0 0 0 0 0 0 0 0 0 127 0"/>
<feOffset dy="4"/>
<feGaussianBlur stdDeviation="2"/>
<feColorMatrix type="matrix" values="0 0 0 0 0 0 0 0 0 0 0 0 0 0 0 0 0 0 0.25 0"/>
<feBlend mode="normal" in2="BackgroundImageFix" result="effect1_dropShadow"/>
<feBlend mode="normal" in="SourceGraphic" in2="effect1_dropShadow" result="shape"/>
</filter>
<filter id="filter1_d" x="579" y="256" width="175" height="171" filterUnits="userSpaceOnUse" color-interpolation-filters="sRGB">
<feFlood flood-opacity="0" result="BackgroundImageFix"/>
<feColorMatrix in="SourceAlpha" type="matrix" values="0 0 0 0 0 0 0 0 0 0 0 0 0 0 0 0 0 0 127 0"/>
<feOffset dy="4"/>
<feGaussianBlur stdDeviation="2"/>
<feColorMatrix type="matrix" values="0 0 0 0 0 0 0 0 0 0 0 0 0 0 0 0 0 0 0.25 0"/>
<feBlend mode="normal" in2="BackgroundImageFix" result="effect1_dropShadow"/>
<feBlend mode="normal" in="SourceGraphic" in2="effect1_dropShadow" result="shape"/>
</filter>
<linearGradient id="paint0_linear" x1="122.999" y1="229.059" x2="122.999" y2="190.172" gradientUnits="userSpaceOnUse">
<stop stop-color="#844E35" stop-opacity="0.8"/>
<stop offset="0.7" stop-color="#652E15"/>
</linearGradient>
<linearGradient id="paint1_linear" x1="122.998" y1="204.171" x2="122.998" y2="201.838" gradientUnits="userSpaceOnUse">
<stop offset="0.1" stop-color="#8B573F"/>
<stop offset="1" stop-color="#844E35"/>
</linearGradient>
<radialGradient id="paint2_radial" cx="0" cy="0" r="1" gradientUnits="userSpaceOnUse" gradientTransform="translate(103.087 161.131) rotate(179.978) scale(9.25965 8.37472)">
<stop stop-color="white"/>
<stop offset="0.544" stop-color="#FDFEFE"/>
<stop offset="0.74" stop-color="#F6F8F9"/>
<stop offset="0.879" stop-color="#EAEFF2"/>
<stop offset="0.992" stop-color="#D9E3E8"/>
<stop offset="1" stop-color="#D8E2E7"/>
</radialGradient>
<radialGradient id="paint3_radial" cx="0" cy="0" r="1" gradientUnits="userSpaceOnUse" gradientTransform="translate(105.201 160.644) rotate(1.07805) scale(12.1856 8.81955)">
<stop stop-color="#844E35"/>
<stop offset="0.7" stop-color="#844E35" stop-opacity="0.3"/>
<stop offset="1" stop-color="#93614A" stop-opacity="0"/>
</radialGradient>
<radialGradient id="paint4_radial" cx="0" cy="0" r="1" gradientUnits="userSpaceOnUse" gradientTransform="translate(101.773 174.582) rotate(-2.67727) scale(17.3544 15.5282)">
<stop offset="0.9" stop-opacity="0"/>
<stop offset="1" stop-opacity="0.2"/>
</radialGradient>
<radialGradient id="paint5_radial" cx="0" cy="0" r="1" gradientUnits="userSpaceOnUse" gradientTransform="translate(142.608 161.131) rotate(0.0222452) scale(9.26035 8.37538)">
<stop stop-color="white"/>
<stop offset="0.544" stop-color="#FDFEFE"/>
<stop offset="0.74" stop-color="#F6F8F9"/>
<stop offset="0.879" stop-color="#EAEFF2"/>
<stop offset="0.992" stop-color="#D9E3E8"/>
<stop offset="1" stop-color="#D8E2E7"/>
</radialGradient>
<radialGradient id="paint6_radial" cx="0" cy="0" r="1" gradientUnits="userSpaceOnUse" gradientTransform="translate(140.496 160.644) rotate(178.922) scale(12.1856 8.81955)">
<stop stop-color="#844E35"/>
<stop offset="0.7" stop-color="#844E35" stop-opacity="0.3"/>
<stop offset="1" stop-color="#93614A" stop-opacity="0"/>
</radialGradient>
<radialGradient id="paint7_radial" cx="0" cy="0" r="1" gradientUnits="userSpaceOnUse" gradientTransform="translate(143.923 174.582) rotate(-177.323) scale(17.3544 15.5282)">
<stop offset="0.9" stop-opacity="0"/>
<stop offset="1" stop-opacity="0.2"/>
</radialGradient>
<radialGradient id="paint8_radial" cx="0" cy="0" r="1" gradientUnits="userSpaceOnUse" gradientTransform="translate(122.999 183.95) scale(31.0165 31.8877)">
<stop stop-color="#A27662" stop-opacity="0.5"/>
<stop offset="0.9" stop-color="#93614A" stop-opacity="0"/>
</radialGradient>
<radialGradient id="paint9_radial" cx="0" cy="0" r="1" gradientUnits="userSpaceOnUse" gradientTransform="translate(122.998 137.285) scale(27.9905 28.7767)">
<stop stop-color="#A27662" stop-opacity="0.5"/>
<stop offset="0.9" stop-color="#93614A" stop-opacity="0"/>
</radialGradient>
<clipPath id="clip0">
<rect width="167" height="163" fill="white" transform="translate(583 256)"/>
</clipPath>
<clipPath id="clip1">
<rect width="36.3855" height="170.951" fill="white" transform="translate(661.369 369.305)"/>
</clipPath>
<clipPath id="clip2">
<rect width="178" height="183" fill="white" transform="translate(34 80)"/>
</clipPath>
</defs>
</svg>
